<svg width="188" height="35" viewBox="0 0 188 35" fill="none" xmlns="http://www.w3.org/2000/svg">
<g clip-path="url(#clip0_210_8170)">
<path fill-rule="evenodd" clip-rule="evenodd" d="M39.9253 22.2157C39.9331 22.6382 39.9331 23.0223 39.9176 23.3756C39.9022 23.729 39.833 24.067 39.7098 24.4049C39.6251 24.6354 39.5096 24.8274 39.3634 24.9811C39.217 25.1347 39.04 25.2653 38.8322 25.3728H43.2898C44.0135 25.3882 44.7449 25.3728 45.4917 25.3421C46.2384 25.3113 46.9544 25.1808 47.655 24.9657C48.679 24.6354 49.5489 24.067 50.2804 23.2527C51.0118 22.4461 51.3967 21.4092 51.4275 20.1571C51.4121 19.3504 51.1965 18.6591 50.7884 18.0677C50.3804 17.4762 49.8646 17.0076 49.2564 16.6465C48.6482 16.2932 48.0323 16.0551 47.4163 15.9552C47.5627 15.9015 47.8245 15.7632 48.2171 15.5404C48.602 15.3176 48.9715 14.9873 49.318 14.5648C49.6644 14.1347 49.8492 13.5816 49.8723 12.9133C49.8646 11.8072 49.4334 10.9161 48.5789 10.2401C47.7243 9.56416 46.5079 9.21848 44.9296 9.20312C44.7988 9.20312 44.4215 9.20312 43.8055 9.20312C43.1897 9.20312 42.4967 9.20312 41.7345 9.20312C40.9724 9.20312 40.3026 9.20312 39.7406 9.20312C39.1709 9.20312 38.8783 9.20312 38.8475 9.20312C39.0323 9.2953 39.1939 9.41052 39.3325 9.5411C39.4711 9.67938 39.5866 9.84838 39.6713 10.0481C39.8176 10.4091 39.9022 10.7855 39.9253 11.185C39.9408 11.5844 39.9485 11.9762 39.9408 12.3525V22.2157H39.9253ZM42.4044 10.8854C42.4352 10.8777 42.6199 10.8547 42.951 10.8162C43.282 10.7702 43.59 10.7471 43.8671 10.7394C44.9989 10.7548 45.8304 10.9852 46.377 11.4231C46.916 11.8609 47.1854 12.3986 47.1854 13.0363C47.1546 13.8735 46.8774 14.488 46.3616 14.8721C45.8458 15.2562 45.2914 15.4943 44.6909 15.5942C44.0981 15.694 43.667 15.7324 43.4052 15.7171C43.3206 15.7171 43.1511 15.7171 42.9049 15.7094C42.6585 15.7017 42.4891 15.7017 42.4044 15.694V10.8854ZM42.4044 17.3303C42.4198 17.3303 42.5353 17.3226 42.7585 17.3072C42.9818 17.2918 43.2127 17.2765 43.4668 17.2611C43.7209 17.2457 43.898 17.238 44.0135 17.238C45.7226 17.2611 46.9237 17.5914 47.6243 18.2136C48.3248 18.8434 48.6636 19.6193 48.6405 20.5411C48.6097 21.4552 48.348 22.1312 47.8475 22.5768C47.347 23.0223 46.7851 23.3219 46.1615 23.4601C45.5378 23.5984 45.022 23.6675 44.6217 23.6521C44.2444 23.6521 43.8749 23.6291 43.5054 23.5907C43.1358 23.5523 42.774 23.4985 42.4044 23.437V17.3303Z" fill="white"/>
<path d="M60.8042 23.3832V9.19531C60.3884 9.19531 57.2241 9.19531 57.2241 9.19531C57.4089 9.28749 57.5706 9.4104 57.7092 9.54866C57.8478 9.68693 57.9633 9.85592 58.0479 10.048C58.1942 10.409 58.2789 10.7854 58.302 11.1848C58.3174 11.5843 58.3251 11.976 58.3174 12.3525V22.2232C58.3251 22.592 58.3251 22.9606 58.3097 23.3294C58.2943 23.6981 58.225 24.0592 58.1018 24.4048C58.0172 24.6352 57.9017 24.8273 57.7554 24.9809C57.6091 25.1345 57.4321 25.2652 57.2241 25.3727H67.302L68.5954 22.1234C68.4029 22.2616 68.2028 22.3923 67.9949 22.5305C67.7871 22.6688 67.5869 22.7917 67.379 22.8993C66.9247 23.1297 66.4474 23.314 65.9393 23.4369C65.4388 23.5599 64.9308 23.629 64.4303 23.629C63.2139 23.629 62.0051 23.5445 60.8042 23.3832Z" fill="white"/>
<path d="M76.8718 25.3419V12.3448C76.8641 11.9914 76.8718 9.57171 76.8872 9.19531C76.7179 9.19531 73.2917 9.19531 73.2917 9.19531C73.4765 9.28749 73.6383 9.4104 73.7768 9.54866C73.9154 9.68693 74.0309 9.85592 74.1156 10.048C74.2618 10.409 74.3466 10.7854 74.3696 11.1848C74.385 11.5843 74.3928 11.976 74.385 12.3525V22.2232C74.3928 22.592 74.3928 22.9606 74.3773 23.3294C74.3619 23.7058 74.2927 24.0592 74.1695 24.4048C74.0848 24.6352 73.9693 24.8273 73.8231 24.9809C73.6767 25.1345 73.4997 25.2652 73.2917 25.3727C73.2995 25.3727 76.4253 25.3419 76.8718 25.3419Z" fill="white"/>
<path d="M87.9346 12.6597L96.5805 23.5983C97.0578 24.2051 97.5582 24.7198 98.0817 25.1422C98.6052 25.5648 99.2366 25.9104 99.9602 26.1716V9.19531C99.2366 9.19531 96.873 9.19531 96.873 9.19531C97.4196 9.55635 97.7737 9.97114 97.9355 10.4397C98.1048 10.9083 98.1741 11.4537 98.1587 12.0836V21.6933L89.0509 10.1248C88.9355 9.97883 88.8277 9.83288 88.7198 9.68693C88.6121 9.5333 88.5274 9.37198 88.4658 9.21067H84.8396C85.3863 9.57171 85.7404 9.98651 85.9021 10.4551C86.0714 10.9237 86.1407 11.4691 86.1253 12.099V22.5074C86.1407 23.1374 86.0637 23.6827 85.9021 24.1513C85.7327 24.6198 85.3786 25.0347 84.8396 25.3957C84.8396 25.3957 87.4264 25.3957 87.9269 25.3727V12.6597H87.9346Z" fill="white"/>
<path d="M112.126 16.9538C112.588 17.553 113.042 18.1598 113.488 18.7821C113.935 19.4042 114.382 20.0187 114.828 20.641C115.49 21.5704 116.16 22.4845 116.853 23.3832C117.022 23.6061 117.192 23.8212 117.361 24.0286C117.531 24.236 117.707 24.4357 117.9 24.62C118.231 24.935 118.601 25.1577 119.016 25.2959C119.424 25.4343 119.864 25.4958 120.31 25.4958C120.702 25.4958 121.094 25.4881 121.503 25.4727C121.903 25.4573 122.303 25.4266 122.697 25.3728C122.243 25.0732 121.795 24.7583 121.357 24.428C120.918 24.0976 120.503 23.7443 120.109 23.3603C119.578 22.8226 119.078 22.2464 118.609 21.6319C118.138 21.0173 117.684 20.4105 117.238 19.796L115.244 17.1304L114.759 16.4545L120.433 9.20312H115.998C116.191 9.31835 116.361 9.4643 116.514 9.63329C116.668 9.80229 116.745 10.0097 116.753 10.2478C116.722 10.5781 116.568 10.9622 116.284 11.4C115.998 11.8379 115.745 12.1912 115.536 12.4601L112.126 16.9538Z" fill="white"/>
<path d="M108.129 9.19531C108.314 9.30285 108.475 9.41807 108.614 9.55635C108.753 9.68693 108.868 9.85592 108.953 10.0403C109.099 10.4013 109.184 10.7777 109.207 11.1772C109.222 11.5766 109.23 11.9684 109.222 12.3448V22.2155C109.23 22.5843 109.23 22.953 109.214 23.3294C109.199 23.7058 109.13 24.0669 109.007 24.4201C108.922 24.6352 108.806 24.8197 108.66 24.9733C108.514 25.1268 108.337 25.2575 108.129 25.365C108.129 25.365 111.185 25.3957 111.709 25.3419V9.19531C111.085 9.19531 108.129 9.19531 108.129 9.19531Z" fill="white"/>
<path d="M137.77 17.4914V21.939C137.77 23.0452 137.624 24.8426 138.856 25.3112V25.388H134.175V25.3112C135.407 24.8426 135.26 23.0529 135.26 21.939V12.6443C135.26 11.5382 135.43 9.74071 134.175 9.27213V9.19531H138.856V9.27213C137.624 9.74071 137.77 11.5305 137.77 12.6674V15.7169H146.662V12.6674C146.662 11.5382 146.832 9.74071 145.577 9.27213V9.19531H150.281V9.27213C149.026 9.74071 149.173 11.5305 149.173 12.6443V21.939C149.173 23.0452 149.026 24.8426 150.281 25.3112V25.388H145.577V25.3112C146.832 24.8426 146.662 23.0529 146.662 21.939V17.4914H137.77Z" fill="white"/>
<path d="M167.019 23.7595C165.933 25.1882 163.916 25.772 162.191 25.772C160.567 25.772 158.843 25.2573 157.733 24.0513C156.425 22.6225 156.479 20.9787 156.479 19.2043V12.6365C156.479 11.5304 156.648 9.73289 155.393 9.26432V9.1875H160.075V9.26432C158.843 9.73289 158.988 11.5227 158.988 12.6365V19.2043C158.988 22.4766 160.367 23.9976 162.908 23.9976C164.285 23.9976 165.694 23.4291 166.503 22.2769C167.042 21.5395 167.019 20.9249 167.019 20.0415V12.6442C167.019 11.5381 167.164 9.74057 165.933 9.272V9.19519H170.614L170.637 9.272C169.382 9.74057 169.529 11.5304 169.529 12.6673V21.9389C169.529 23.0451 169.382 24.8425 170.637 25.3111V25.3879H167.011V23.7595H167.019Z" fill="white"/>
<path d="M185.796 12.13C184.834 11.1467 183.309 10.5783 181.924 10.5783C180.522 10.5783 178.744 11.116 178.744 12.8136C178.744 16.1781 187.22 16.132 187.22 20.6796C187.22 23.3067 184.463 25.7724 180.615 25.7724C179.113 25.7724 177.612 25.5496 176.203 25.035L175.486 21.9624C176.942 23.2145 178.958 24.0057 180.883 24.0057C182.285 24.0057 184.409 23.1684 184.409 21.4477C184.409 17.6146 175.934 18.2982 175.934 13.0901C175.934 9.99449 179.113 8.81152 182.115 8.81152C183.347 8.81152 184.602 8.98052 185.788 9.34924V12.13H185.796Z" fill="white"/>
<path fill-rule="evenodd" clip-rule="evenodd" d="M5.9039 20.9717C6.98943 22.9074 7.84402 25.5653 10.3385 27.4626C11.2854 28.1847 12.8483 27.8006 13.9878 28.1462C15.4351 28.5842 17.1905 29.3292 18.8919 28.8146C22.3487 27.7699 25.2666 25.6959 26.4831 23.568C27.2067 22.3006 27.199 21.2867 27.2606 19.781C27.3299 18.0988 27.8381 15.6944 27.199 13.8509C26.4445 11.6924 23.5882 9.20355 19.9082 10.3481C19.0536 10.617 17.2597 10.7706 16.1897 11.2852C13.3872 12.6372 11.8089 15.5178 13.1408 19.3355C13.418 20.1191 16.4745 21.0946 18.4685 20.5569C19.6387 20.2419 20.116 17.8991 19.7389 16.839C19.6387 16.5395 19.0613 15.587 18.5685 15.5409C18.1143 15.4947 17.7217 15.5639 17.4292 15.7482C17.0981 15.9633 16.844 15.9018 16.613 16.2629C16.4591 16.5087 16.1511 17.8376 16.8132 18.2985C17.3599 18.6826 15.566 18.6596 15.2966 17.3383C14.9424 14.7035 16.051 14.2503 17.7293 13.6589C19.5541 13.0059 22.2179 13.0289 22.9878 15.2259C23.9425 17.9529 22.649 22.4696 18.4839 23.0841C15.5891 23.5067 11.8013 23.6141 10.6695 20.3649C10.6695 20.3649 9.95351 18.7441 9.84572 18.022C9.77644 16.9389 10.1999 15.5332 10.2461 14.4346C10.4231 11.0855 14.3342 8.91164 17.7525 7.95144C18.4069 7.76709 21.3248 7.22938 22.4027 7.22938C22.4027 7.22938 22.3025 6.2615 21.14 5.25522C20.1006 4.56388 18.4685 2.93538 15.7354 3.69586C14.8808 3.93399 14.2419 3.70353 13.0638 4.36416C12.2478 4.82505 11.6011 5.3858 10.6772 5.68538C9.27601 6.1386 7.07413 7.2601 6.36583 8.84251C5.40346 10.9626 5.40346 12.1148 5.01852 13.6819C4.47959 15.8788 4.06386 17.6917 5.9039 20.9717ZM3.85599 24.3439C2.87052 22.1546 3.49414 22.508 2.30852 19.9194C-0.124339 12.3607 1.26916 7.16792 9.353 2.79711C11.3085 1.62952 13.5489 1.43748 16.1204 1.07644C16.9518 0.961219 20.8089 1.68329 22.6336 2.95075C23.6113 3.61904 24.7816 5.49335 25.2359 7.12184C25.2973 7.32923 26.791 7.89768 27.3453 8.38929C29.2084 10.0178 29.5241 11.4466 30.2401 13.2057C31.0562 15.2182 30.6558 15.9864 31.2871 18.3138C32.2033 22.1931 27.8534 28.3537 23.9501 29.5367C22.5566 29.9592 20.986 31.3188 19.4386 31.4954C7.40518 32.9012 7.27429 30.3048 3.85599 24.3439Z" fill="white"/>
</g>
<defs>
<clipPath id="clip0_210_8170">
<rect width="187.615" height="34.4115" fill="white" transform="translate(0.221558 0.5)"/>
</clipPath>
</defs>
</svg>
