<svg width="138" height="45" viewBox="0 0 138 45" fill="none" xmlns="http://www.w3.org/2000/svg">
<path d="M33.5483 11.0103C33.5483 14.3189 30.8661 17.0011 27.5575 17.0011C24.2489 17.0011 21.5668 14.3189 21.5668 11.0103C21.5668 7.70169 24.2489 5.01953 27.5575 5.01953C30.8661 5.01953 33.5483 7.70169 33.5483 11.0103Z" fill="#7F56D9"/>
<path d="M8.38707 31.9777C8.38707 34.2937 6.50956 36.1712 4.19353 36.1712C1.87751 36.1712 0 34.2937 0 31.9777C0 29.6617 1.87751 27.7842 4.19353 27.7842C6.50956 27.7842 8.38707 29.6617 8.38707 31.9777Z" fill="white"/>
<path d="M48.2134 34.8265C48.2134 37.1426 46.3359 39.0201 44.0198 39.0201C41.7038 39.0201 39.8263 37.1426 39.8263 34.8265C39.8263 32.5105 41.7038 30.633 44.0198 30.633C46.3359 30.633 48.2134 32.5105 48.2134 34.8265Z" fill="white"/>
<path d="M30.3602 32.1535C30.3602 34.4695 28.4827 36.347 26.1667 36.347C23.8507 36.347 21.9731 34.4695 21.9731 32.1535C21.9731 29.8375 23.8507 27.96 26.1667 27.96C28.4827 27.96 30.3602 29.8375 30.3602 32.1535Z" fill="white"/>
<path d="M20.3686 22.3927C20.3686 25.3704 17.9546 27.7844 14.9769 27.7844C11.9991 27.7844 9.58521 25.3704 9.58521 22.3927C9.58521 19.4149 11.9991 17.001 14.9769 17.001C17.9546 17.001 20.3686 19.4149 20.3686 22.3927Z" fill="white"/>
<path d="M40.9964 23.7384C40.9964 26.7161 38.5825 29.1301 35.6048 29.1301C32.627 29.1301 30.2131 26.7161 30.2131 23.7384C30.2131 20.7606 32.627 18.3467 35.6048 18.3467C38.5825 18.3467 40.9964 20.7606 40.9964 23.7384Z" fill="white"/>
<path d="M77.408 6.79553C78.416 6.79553 79.312 7.00353 80.096 7.41953C80.896 7.81953 81.52 8.44353 81.968 9.29153C82.432 10.1395 82.664 11.2355 82.664 12.5795V20.0195H78.104V13.3235C78.104 12.3955 77.928 11.7235 77.576 11.3075C77.224 10.8755 76.744 10.6595 76.136 10.6595C75.704 10.6595 75.312 10.7635 74.96 10.9715C74.608 11.1795 74.336 11.4995 74.144 11.9315C73.952 12.3475 73.856 12.8915 73.856 13.5635V20.0195H69.296V13.3235C69.296 12.3955 69.12 11.7235 68.768 11.3075C68.432 10.8755 67.952 10.6595 67.328 10.6595C66.88 10.6595 66.48 10.7635 66.128 10.9715C65.792 11.1795 65.52 11.4995 65.312 11.9315C65.12 12.3475 65.024 12.8915 65.024 13.5635V20.0195H60.464V7.01153H64.808V10.6355L63.944 9.60353C64.424 8.67553 65.08 7.97953 65.912 7.51553C66.744 7.03553 67.672 6.79553 68.696 6.79553C69.864 6.79553 70.888 7.09953 71.768 7.70753C72.664 8.29953 73.264 9.22753 73.568 10.4915L72.08 10.1795C72.544 9.12353 73.24 8.29953 74.168 7.70753C75.112 7.09953 76.192 6.79553 77.408 6.79553ZM84.8221 20.0195V7.01153H89.3821V20.0195H84.8221ZM87.1021 5.57153C86.2701 5.57153 85.5981 5.33953 85.0861 4.87553C84.5741 4.41153 84.3181 3.83553 84.3181 3.14753C84.3181 2.45953 84.5741 1.88353 85.0861 1.41953C85.5981 0.955531 86.2701 0.723531 87.1021 0.723531C87.9341 0.723531 88.6061 0.947531 89.1181 1.39553C89.6301 1.82753 89.8861 2.38753 89.8861 3.07553C89.8861 3.79553 89.6301 4.39553 89.1181 4.87553C88.6221 5.33953 87.9501 5.57153 87.1021 5.57153ZM100.098 6.79553C101.106 6.79553 102.018 7.00353 102.834 7.41953C103.65 7.81953 104.29 8.44353 104.754 9.29153C105.234 10.1395 105.474 11.2355 105.474 12.5795V20.0195H100.914V13.3235C100.914 12.3955 100.722 11.7235 100.338 11.3075C99.9696 10.8755 99.4496 10.6595 98.7776 10.6595C98.2976 10.6595 97.8576 10.7715 97.4576 10.9955C97.0576 11.2035 96.7456 11.5315 96.5216 11.9795C96.2976 12.4275 96.1856 13.0115 96.1856 13.7315V20.0195H91.6256V7.01153H95.9696V10.7075L95.1296 9.62753C95.6256 8.68353 96.3056 7.97953 97.1696 7.51553C98.0336 7.03553 99.0096 6.79553 100.098 6.79553Z" fill="#7F56D9"/>
<path d="M66.272 42.2355C64.608 42.2355 63.312 41.8275 62.384 41.0115C61.456 40.1795 60.992 38.9315 60.992 37.2675V26.1075H65.552V37.2195C65.552 37.6835 65.68 38.0515 65.936 38.3235C66.192 38.5795 66.52 38.7075 66.92 38.7075C67.464 38.7075 67.928 38.5715 68.312 38.2995L69.44 41.4915C69.056 41.7475 68.584 41.9315 68.024 42.0435C67.464 42.1715 66.88 42.2355 66.272 42.2355ZM59.096 32.8995V29.4915H68.528V32.8995H59.096ZM76.6314 42.2355C75.2074 42.2355 73.9434 41.9475 72.8394 41.3715C71.7354 40.7955 70.8634 40.0035 70.2234 38.9955C69.5994 37.9715 69.2874 36.8035 69.2874 35.4915C69.2874 34.1795 69.5994 33.0195 70.2234 32.0115C70.8634 31.0035 71.7354 30.2195 72.8394 29.6595C73.9434 29.0835 75.2074 28.7955 76.6314 28.7955C78.0554 28.7955 79.3194 29.0835 80.4234 29.6595C81.5434 30.2195 82.4154 31.0035 83.0394 32.0115C83.6634 33.0195 83.9754 34.1795 83.9754 35.4915C83.9754 36.8035 83.6634 37.9715 83.0394 38.9955C82.4154 40.0035 81.5434 40.7955 80.4234 41.3715C79.3194 41.9475 78.0554 42.2355 76.6314 42.2355ZM76.6314 38.6115C77.1594 38.6115 77.6234 38.4915 78.0234 38.2515C78.4394 38.0115 78.7674 37.6595 79.0074 37.1955C79.2474 36.7155 79.3674 36.1475 79.3674 35.4915C79.3674 34.8355 79.2474 34.2835 79.0074 33.8355C78.7674 33.3715 78.4394 33.0195 78.0234 32.7795C77.6234 32.5395 77.1594 32.4195 76.6314 32.4195C76.1194 32.4195 75.6554 32.5395 75.2394 32.7795C74.8394 33.0195 74.5114 33.3715 74.2554 33.8355C74.0154 34.2835 73.8954 34.8355 73.8954 35.4915C73.8954 36.1475 74.0154 36.7155 74.2554 37.1955C74.5114 37.6595 74.8394 38.0115 75.2394 38.2515C75.6554 38.4915 76.1194 38.6115 76.6314 38.6115ZM102.312 28.7955C103.32 28.7955 104.216 29.0035 105 29.4195C105.8 29.8195 106.424 30.4435 106.872 31.2915C107.336 32.1395 107.568 33.2355 107.568 34.5795V42.0195H103.008V35.3235C103.008 34.3955 102.832 33.7235 102.48 33.3075C102.128 32.8755 101.648 32.6595 101.04 32.6595C100.608 32.6595 100.216 32.7635 99.8637 32.9715C99.5117 33.1795 99.2397 33.4995 99.0478 33.9315C98.8558 34.3475 98.7597 34.8915 98.7597 35.5635V42.0195H94.1997V35.3235C94.1997 34.3955 94.0237 33.7235 93.6717 33.3075C93.3357 32.8755 92.8557 32.6595 92.2317 32.6595C91.7837 32.6595 91.3837 32.7635 91.0317 32.9715C90.6957 33.1795 90.4237 33.4995 90.2157 33.9315C90.0237 34.3475 89.9277 34.8915 89.9277 35.5635V42.0195H85.3677V29.0115H89.7117V32.6355L88.8477 31.6035C89.3277 30.6755 89.9837 29.9795 90.8157 29.5155C91.6477 29.0355 92.5757 28.7955 93.5997 28.7955C94.7678 28.7955 95.7917 29.0995 96.6717 29.7075C97.5677 30.2995 98.1677 31.2275 98.4718 32.4915L96.9837 32.1795C97.4477 31.1235 98.1437 30.2995 99.0718 29.7075C100.016 29.0995 101.096 28.7955 102.312 28.7955ZM115.534 42.2355C113.87 42.2355 112.574 41.8275 111.646 41.0115C110.718 40.1795 110.254 38.9315 110.254 37.2675V26.1075H114.814V37.2195C114.814 37.6835 114.942 38.0515 115.198 38.3235C115.454 38.5795 115.782 38.7075 116.182 38.7075C116.726 38.7075 117.19 38.5715 117.574 38.2995L118.702 41.4915C118.318 41.7475 117.846 41.9315 117.286 42.0435C116.726 42.1715 116.142 42.2355 115.534 42.2355ZM108.358 32.8995V29.4915H117.79V32.8995H108.358Z" fill="white"/>
</svg>
