<svg width="218" height="37" viewBox="0 0 218 37" fill="none" xmlns="http://www.w3.org/2000/svg">
<mask id="mask0_9074_9904" style="mask-type:luminance" maskUnits="userSpaceOnUse" x="1" y="10" width="145" height="21">
<path d="M146 10.2383H1.18945V30.8549H146V10.2383Z" fill="white"/>
</mask>
<g mask="url(#mask0_9074_9904)">
<path d="M101.939 26.6022H99.3724C99.3724 25.1902 99.3817 23.8161 99.3679 22.442C99.3679 22.0736 99.3349 21.6958 99.2463 21.337C99.1251 20.827 98.7843 20.5012 98.2479 20.4445C97.7016 20.3831 97.2214 20.572 97.0111 21.0867C96.8293 21.54 96.717 22.05 96.7032 22.5411C96.6613 23.8727 96.6894 25.2091 96.6894 26.5927H94.0853C94.0715 26.3897 94.0478 26.1819 94.0478 25.9741C94.0478 24.7275 94.0528 23.4761 94.0434 22.2295C94.0434 21.9272 94.006 21.6156 93.9311 21.3228C93.7961 20.7703 93.4228 20.4681 92.8628 20.435C92.2884 20.402 91.7939 20.605 91.6166 21.1717C91.458 21.6817 91.388 22.2389 91.3742 22.7772C91.3412 24.0428 91.3649 25.3036 91.3649 26.6069H88.7607V18.4187H91.3225C91.3462 18.6217 91.3693 18.8295 91.4112 19.1884C92.0973 18.3668 92.9421 18.1307 93.8799 18.1826C94.8551 18.2345 95.6112 18.6642 96.1432 19.6087C97.0298 18.3904 98.2011 18.0315 99.5916 18.2298C100.87 18.414 101.822 19.1365 101.907 20.4209C102.037 22.4609 101.939 24.5197 101.939 26.6022Z" fill="black"/>
<path d="M106.756 19.2908C107.797 18.2141 108.898 18.011 110.116 18.233C111.339 18.4549 112.286 19.2955 112.342 20.5374C112.431 22.5443 112.365 24.5559 112.365 26.6054H109.78C109.78 25.2643 109.785 23.9562 109.78 22.6482C109.78 22.2799 109.757 21.9068 109.701 21.5385C109.598 20.8632 109.183 20.4996 108.52 20.4288C107.881 20.358 107.325 20.5657 107.069 21.1749C106.887 21.6046 106.798 22.0957 106.789 22.5679C106.752 23.8995 106.775 25.2312 106.775 26.6054H104.147V13.1992H106.756V19.2908Z" fill="black"/>
<path d="M63.8682 13.1836H66.4487V19.2846C67.452 18.274 68.5115 18.0096 69.7109 18.2127C71.0639 18.444 71.9924 19.2468 72.0673 20.6115C72.1697 22.5901 72.0953 24.5828 72.0953 26.6039H69.5424C69.5286 26.3772 69.5099 26.1505 69.5055 25.9192C69.4868 24.5639 69.5193 23.204 69.4449 21.8487C69.3887 20.8523 68.8755 20.3943 68.0308 20.3943C67.2609 20.3943 66.6028 20.9704 66.5467 21.8487C66.4674 23.1142 66.4905 24.3845 66.4723 25.6547C66.4723 25.9569 66.4723 26.2592 66.4723 26.5991H63.8726V13.1836H63.8682Z" fill="black"/>
<path d="M143.556 22.4875C143.556 21.3069 142.679 20.4239 141.503 20.4286C140.387 20.4333 139.515 21.3306 139.506 22.4828C139.501 23.6727 140.355 24.5652 141.522 24.5841C142.641 24.5983 143.551 23.6586 143.551 22.4922M143.379 19.0875C143.402 18.8278 143.416 18.6342 143.435 18.4123H146.001V26.5863H143.453C143.43 26.3832 143.402 26.1519 143.365 25.8024C142.516 26.761 141.494 27.0207 140.322 26.8602C139.155 26.6996 138.259 26.1282 137.583 25.1744C136.36 23.4461 136.565 20.7214 138.021 19.2339C139.408 17.8173 141.475 17.7465 143.379 19.0875Z" fill="black"/>
<path d="M124.261 18.386C123.388 20.0481 122.567 21.6017 121.751 23.16C120.481 25.573 119.212 27.9813 117.961 30.3991C117.789 30.739 117.593 30.8713 117.215 30.8571C116.44 30.8288 115.661 30.8477 114.774 30.8477C114.891 30.5974 114.966 30.4085 115.059 30.2291C115.796 28.8691 116.52 27.4996 117.28 26.1538C117.518 25.7336 117.541 25.4125 117.29 24.9733C116.16 22.9617 115.073 20.917 113.976 18.8865C113.906 18.7543 113.85 18.6174 113.738 18.386C114.732 18.386 115.651 18.3623 116.566 18.4096C116.73 18.419 116.921 18.6834 117.024 18.8723C117.695 20.1426 118.339 21.4223 119.049 22.8012C119.744 21.427 120.397 20.1615 121.013 18.8771C121.186 18.5181 121.382 18.3576 121.793 18.3765C122.567 18.4143 123.347 18.386 124.261 18.386Z" fill="black"/>
<path d="M37.14 21.5017H33.5514V26.6016H30.7422V14.3477H37.406V16.7418H33.5701V19.0414H37.14V21.5017Z" fill="black"/>
<path d="M79.556 21.3661C79.3462 20.4311 78.7398 19.9636 77.8345 19.9872C76.9661 20.0108 76.3691 20.5161 76.2243 21.3661H79.556ZM82.0577 22.9904H76.047C76.1263 23.8168 76.3691 24.459 77.1528 24.7471C77.9414 25.0399 78.7442 24.8179 79.3324 24.1946C79.4442 24.0765 79.6496 23.9727 79.8037 23.9868C80.4894 24.034 81.1755 24.119 81.8616 24.1946C81.7355 25.8804 79.6776 27.0987 77.3163 26.9004C74.8008 26.6926 73.1675 24.7612 73.3636 22.2397C73.5832 19.4394 75.4357 17.9047 78.3147 18.1314C80.7184 18.3203 82.2675 20.2847 82.0577 22.9904Z" fill="black"/>
<path d="M50.0155 21.3503C49.7635 20.4011 49.1709 19.9525 48.2609 19.9855C47.4163 20.0186 46.8189 20.5239 46.6883 21.3503H50.0155ZM52.4841 24.363C52.0969 24.8918 51.7792 25.4963 51.3083 25.9307C49.7589 27.3615 46.525 27.2293 45.0363 25.7371C43.781 24.4763 43.4404 22.4127 44.1824 20.6136C44.8544 18.9939 46.2123 18.1297 48.0836 18.125C51 18.1203 52.7968 20.08 52.4654 22.9888H46.5436C46.5483 23.9096 46.9216 24.5046 47.5936 24.7501C48.3636 25.0288 49.2175 24.8116 49.7355 24.2543C49.8709 24.1127 50.1135 23.9852 50.3002 23.9946C50.9675 24.0277 51.63 24.1221 52.2974 24.1883C52.358 24.2449 52.4186 24.3015 52.4796 24.3582" fill="black"/>
<path d="M56.8467 13.1836H54.252V26.5944H56.8467V13.1836Z" fill="black"/>
<path d="M61.5943 13.1836H59.0557V26.6039H61.5943V13.1836Z" fill="black"/>
<path d="M131.8 20.6161C131.474 20.5736 131.227 20.5405 130.933 20.5028V18.4297C131.18 18.4061 131.427 18.3825 131.777 18.3494V15.7617H134.451V18.3636H136.033V20.5311H134.493V26.5896H131.8V20.6161Z" fill="black"/>
<path d="M128.465 20.5334V26.5919H125.796V20.6089C125.46 20.5617 125.189 20.5239 124.909 20.4862V18.4131C125.194 18.3895 125.446 18.3754 125.768 18.347V15.7734H128.46V18.3754H130.014V20.5287H128.46L128.465 20.5334Z" fill="black"/>
<path d="M41.9537 18.4023H39.3965V30.8121H41.9537V18.4023Z" fill="black"/>
<path d="M86.4901 18.4062H83.9189V26.6039H86.4901V18.4062Z" fill="black"/>
<path d="M40.662 13.3633C41.5672 13.3586 42.2439 14.0244 42.2345 14.9122C42.2252 15.7669 41.5532 16.4516 40.7039 16.4658C39.8266 16.4799 39.136 15.7858 39.1406 14.8886C39.1406 14.0055 39.78 13.368 40.662 13.3633Z" fill="black"/>
<path d="M85.2193 16.461C84.3559 16.4704 83.6978 15.8235 83.6791 14.9452C83.6609 14.0149 84.2815 13.368 85.1962 13.3633C86.0734 13.3633 86.7403 13.996 86.764 14.8555C86.7871 15.7244 86.0921 16.4516 85.2193 16.461Z" fill="black"/>
<path d="M15.5605 24.6073L12.1363 21.1949L16.0662 17.2784L19.9066 21.1056V28.8912H3.15968V25.6888L8.50667 20.3601L14.1645 25.9986L15.5552 24.6125L15.5605 24.6073ZM3.15968 12.2018H19.9066V18.3284L16.0662 14.5012L10.7403 19.8089L8.50667 17.5829L3.15968 22.9116V12.2018ZM1.18945 30.8547H21.8768V10.2383H1.18945V30.8547Z" fill="black"/>
</g>
<path d="M209.908 25.025V26.898H208.784C207.983 26.898 207.359 26.7043 206.911 26.3167C206.464 25.9206 206.24 25.2791 206.24 24.3921V21.5245H205.361V19.6903H206.24V17.9336H208.448V19.6903H209.895V21.5245H208.448V24.4179C208.448 24.6332 208.5 24.7882 208.604 24.883C208.707 24.9777 208.879 25.025 209.12 25.025H209.908Z" fill="#00231D"/>
<path d="M201.802 19.6133C202.698 19.6133 203.408 19.8845 203.934 20.4271C204.468 20.9696 204.735 21.7231 204.735 22.6875V26.8985H202.539V22.9846C202.539 22.5196 202.414 22.1622 202.164 21.9125C201.923 21.6542 201.587 21.525 201.157 21.525C200.726 21.525 200.386 21.6542 200.136 21.9125C199.895 22.1622 199.774 22.5196 199.774 22.9846V26.8985H197.579V22.9846C197.579 22.5196 197.454 22.1622 197.204 21.9125C196.963 21.6542 196.627 21.525 196.196 21.525C195.766 21.525 195.426 21.6542 195.176 21.9125C194.935 22.1622 194.814 22.5196 194.814 22.9846V26.8985H192.605V19.6908H194.814V20.595C195.038 20.2936 195.331 20.0568 195.693 19.8845C196.054 19.7037 196.463 19.6133 196.92 19.6133C197.462 19.6133 197.945 19.7295 198.366 19.962C198.797 20.1945 199.133 20.5261 199.374 20.9567C199.624 20.5605 199.964 20.2376 200.394 19.9879C200.825 19.7381 201.294 19.6133 201.802 19.6133Z" fill="#00231D"/>
<path d="M188.05 27.0003C187.344 27.0003 186.707 26.8496 186.138 26.5482C185.579 26.2468 185.135 25.8162 184.808 25.2565C184.489 24.6968 184.33 24.0423 184.33 23.2931C184.33 22.5525 184.494 21.9024 184.821 21.3427C185.148 20.7743 185.596 20.3394 186.164 20.038C186.733 19.7366 187.37 19.5859 188.076 19.5859C188.782 19.5859 189.419 19.7366 189.988 20.038C190.556 20.3394 191.004 20.7743 191.331 21.3427C191.658 21.9024 191.822 22.5525 191.822 23.2931C191.822 24.0337 191.654 24.6882 191.318 25.2565C190.991 25.8162 190.539 26.2468 189.962 26.5482C189.394 26.8496 188.756 27.0003 188.05 27.0003ZM188.05 25.0886C188.472 25.0886 188.83 24.9336 189.122 24.6236C189.424 24.3136 189.574 23.8701 189.574 23.2931C189.574 22.7162 189.428 22.2727 189.135 21.9627C188.851 21.6527 188.498 21.4977 188.076 21.4977C187.645 21.4977 187.288 21.6527 187.004 21.9627C186.72 22.2641 186.578 22.7076 186.578 23.2931C186.578 23.8701 186.715 24.3136 186.991 24.6236C187.275 24.9336 187.628 25.0886 188.05 25.0886Z" fill="#00231D"/>
<path d="M184.047 17.8359V19.6056H181.645V26.9037H179.436V19.6056H177.033V17.8359H184.047Z" fill="#00231D"/>
<path d="M173.277 19.7148C174.121 19.7148 174.81 19.9775 175.344 20.5028C175.878 21.0195 176.145 21.773 176.145 22.7633V26.8967H175.254V22.8666C175.254 22.1002 175.06 21.5146 174.672 21.1099C174.294 20.7051 173.773 20.5028 173.11 20.5028C172.429 20.5028 171.887 20.7181 171.482 21.1486C171.077 21.5792 170.875 22.2121 170.875 23.0474V26.8967H169.971V19.844H170.875V21.0453C171.099 20.6147 171.422 20.2875 171.844 20.0636C172.266 19.8311 172.744 19.7148 173.277 19.7148Z" fill="#00231D"/>
<path d="M167.859 18.514C167.678 18.514 167.523 18.4495 167.394 18.3203C167.265 18.1911 167.2 18.0318 167.2 17.8424C167.2 17.6529 167.265 17.4979 167.394 17.3773C167.523 17.2482 167.678 17.1836 167.859 17.1836C168.04 17.1836 168.195 17.2482 168.324 17.3773C168.453 17.4979 168.518 17.6529 168.518 17.8424C168.518 18.0318 168.453 18.1911 168.324 18.3203C168.195 18.4495 168.04 18.514 167.859 18.514ZM168.311 19.8445V26.8972H167.407V19.8445H168.311Z" fill="#00231D"/>
<path d="M165.743 17.9883V26.901H164.839V19.7837L161.661 26.901H161.003L157.825 19.8096V26.901H156.921V17.9883H157.877L161.326 25.7127L164.774 17.9883H165.743Z" fill="#00231D"/>
<path d="M177.374 6V7.61463H151.02V6H177.374Z" fill="#00231D"/>
<path d="M177.372 13.9531L177.372 15.5678L167.146 15.5678L167.146 13.9531L177.372 13.9531Z" fill="#00231D"/>
<path d="M154.77 17.2539V18.8685H151V17.2539H154.77Z" fill="#00231D"/>
<path d="M152.618 18.4001L151.004 18.3975L151.021 7.49349L152.636 7.49609L152.618 18.4001Z" fill="#00231D"/>
<path d="M177.373 15.0302H175.758V6.95703H177.373V15.0302Z" fill="#00231D"/>
<path d="M180.66 14C180.616 14 180.582 13.988 180.558 13.964C180.534 13.936 180.522 13.902 180.522 13.862V9.944C180.522 9.9 180.534 9.866 180.558 9.842C180.582 9.814 180.616 9.8 180.66 9.8H182.184C182.48 9.8 182.736 9.848 182.952 9.944C183.172 10.04 183.342 10.184 183.462 10.376C183.582 10.564 183.642 10.8 183.642 11.084C183.642 11.368 183.582 11.604 183.462 11.792C183.342 11.98 183.172 12.122 182.952 12.218C182.736 12.314 182.48 12.362 182.184 12.362H181.122V13.862C181.122 13.902 181.108 13.936 181.08 13.964C181.056 13.988 181.022 14 180.978 14H180.66ZM181.116 11.858H182.154C182.45 11.858 182.672 11.792 182.82 11.66C182.968 11.528 183.042 11.336 183.042 11.084C183.042 10.836 182.97 10.644 182.826 10.508C182.682 10.372 182.458 10.304 182.154 10.304H181.116V11.858ZM185.531 14.06C185.227 14.06 184.973 14.002 184.769 13.886C184.565 13.77 184.409 13.61 184.301 13.406C184.193 13.198 184.133 12.962 184.121 12.698C184.117 12.63 184.115 12.544 184.115 12.44C184.115 12.332 184.117 12.246 184.121 12.182C184.133 11.914 184.193 11.678 184.301 11.474C184.413 11.27 184.571 11.11 184.775 10.994C184.979 10.878 185.231 10.82 185.531 10.82C185.831 10.82 186.083 10.878 186.287 10.994C186.491 11.11 186.647 11.27 186.755 11.474C186.867 11.678 186.929 11.914 186.941 12.182C186.945 12.246 186.947 12.332 186.947 12.44C186.947 12.544 186.945 12.63 186.941 12.698C186.929 12.962 186.869 13.198 186.761 13.406C186.653 13.61 186.497 13.77 186.293 13.886C186.089 14.002 185.835 14.06 185.531 14.06ZM185.531 13.598C185.779 13.598 185.977 13.52 186.125 13.364C186.273 13.204 186.353 12.972 186.365 12.668C186.369 12.608 186.371 12.532 186.371 12.44C186.371 12.348 186.369 12.272 186.365 12.212C186.353 11.908 186.273 11.678 186.125 11.522C185.977 11.362 185.779 11.282 185.531 11.282C185.283 11.282 185.083 11.362 184.931 11.522C184.783 11.678 184.705 11.908 184.697 12.212C184.693 12.272 184.691 12.348 184.691 12.44C184.691 12.532 184.693 12.608 184.697 12.668C184.705 12.972 184.783 13.204 184.931 13.364C185.083 13.52 185.283 13.598 185.531 13.598ZM188.444 14C188.392 14 188.352 13.988 188.324 13.964C188.296 13.936 188.272 13.898 188.252 13.85L187.4 11.066C187.392 11.046 187.388 11.026 187.388 11.006C187.388 10.97 187.4 10.94 187.424 10.916C187.452 10.892 187.482 10.88 187.514 10.88H187.778C187.822 10.88 187.856 10.892 187.88 10.916C187.904 10.94 187.92 10.962 187.928 10.982L188.594 13.244L189.308 11.006C189.316 10.978 189.332 10.95 189.356 10.922C189.384 10.894 189.424 10.88 189.476 10.88H189.68C189.732 10.88 189.772 10.894 189.8 10.922C189.828 10.95 189.844 10.978 189.848 11.006L190.562 13.244L191.228 10.982C191.232 10.962 191.246 10.94 191.27 10.916C191.294 10.892 191.328 10.88 191.372 10.88H191.636C191.672 10.88 191.702 10.892 191.726 10.916C191.75 10.94 191.762 10.97 191.762 11.006C191.762 11.026 191.758 11.046 191.75 11.066L190.898 13.85C190.886 13.898 190.864 13.936 190.832 13.964C190.804 13.988 190.762 14 190.706 14H190.472C190.42 14 190.376 13.988 190.34 13.964C190.308 13.936 190.286 13.898 190.274 13.85L189.578 11.702L188.882 13.85C188.866 13.898 188.842 13.936 188.81 13.964C188.778 13.988 188.734 14 188.678 14H188.444ZM193.586 14.06C193.174 14.06 192.846 13.934 192.602 13.682C192.358 13.426 192.224 13.078 192.2 12.638C192.196 12.586 192.194 12.52 192.194 12.44C192.194 12.356 192.196 12.288 192.2 12.236C192.216 11.952 192.282 11.704 192.398 11.492C192.514 11.276 192.672 11.11 192.872 10.994C193.076 10.878 193.314 10.82 193.586 10.82C193.89 10.82 194.144 10.884 194.348 11.012C194.556 11.14 194.714 11.322 194.822 11.558C194.93 11.794 194.984 12.07 194.984 12.386V12.488C194.984 12.532 194.97 12.566 194.942 12.59C194.918 12.614 194.886 12.626 194.846 12.626H192.77C192.77 12.63 192.77 12.638 192.77 12.65C192.77 12.662 192.77 12.672 192.77 12.68C192.778 12.844 192.814 12.998 192.878 13.142C192.942 13.282 193.034 13.396 193.154 13.484C193.274 13.572 193.418 13.616 193.586 13.616C193.73 13.616 193.85 13.594 193.946 13.55C194.042 13.506 194.12 13.458 194.18 13.406C194.24 13.35 194.28 13.308 194.3 13.28C194.336 13.228 194.364 13.198 194.384 13.19C194.404 13.178 194.436 13.172 194.48 13.172H194.768C194.808 13.172 194.84 13.184 194.864 13.208C194.892 13.228 194.904 13.258 194.9 13.298C194.896 13.358 194.864 13.432 194.804 13.52C194.744 13.604 194.658 13.688 194.546 13.772C194.434 13.856 194.298 13.926 194.138 13.982C193.978 14.034 193.794 14.06 193.586 14.06ZM192.77 12.212H194.414V12.194C194.414 12.014 194.38 11.854 194.312 11.714C194.248 11.574 194.154 11.464 194.03 11.384C193.906 11.3 193.758 11.258 193.586 11.258C193.414 11.258 193.266 11.3 193.142 11.384C193.022 11.464 192.93 11.574 192.866 11.714C192.802 11.854 192.77 12.014 192.77 12.194V12.212ZM195.84 14C195.8 14 195.766 13.988 195.738 13.964C195.714 13.936 195.702 13.902 195.702 13.862V11.024C195.702 10.984 195.714 10.95 195.738 10.922C195.766 10.894 195.8 10.88 195.84 10.88H196.116C196.156 10.88 196.19 10.894 196.218 10.922C196.246 10.95 196.26 10.984 196.26 11.024V11.288C196.34 11.152 196.45 11.05 196.59 10.982C196.73 10.914 196.898 10.88 197.094 10.88H197.334C197.374 10.88 197.406 10.894 197.43 10.922C197.454 10.946 197.466 10.978 197.466 11.018V11.264C197.466 11.304 197.454 11.336 197.43 11.36C197.406 11.384 197.374 11.396 197.334 11.396H196.974C196.758 11.396 196.588 11.46 196.464 11.588C196.34 11.712 196.278 11.882 196.278 12.098V13.862C196.278 13.902 196.264 13.936 196.236 13.964C196.208 13.988 196.174 14 196.134 14H195.84ZM199.165 14.06C198.753 14.06 198.425 13.934 198.181 13.682C197.937 13.426 197.803 13.078 197.779 12.638C197.775 12.586 197.773 12.52 197.773 12.44C197.773 12.356 197.775 12.288 197.779 12.236C197.795 11.952 197.861 11.704 197.977 11.492C198.093 11.276 198.251 11.11 198.451 10.994C198.655 10.878 198.893 10.82 199.165 10.82C199.469 10.82 199.723 10.884 199.927 11.012C200.135 11.14 200.293 11.322 200.401 11.558C200.509 11.794 200.563 12.07 200.563 12.386V12.488C200.563 12.532 200.549 12.566 200.521 12.59C200.497 12.614 200.465 12.626 200.425 12.626H198.349C198.349 12.63 198.349 12.638 198.349 12.65C198.349 12.662 198.349 12.672 198.349 12.68C198.357 12.844 198.393 12.998 198.457 13.142C198.521 13.282 198.613 13.396 198.733 13.484C198.853 13.572 198.997 13.616 199.165 13.616C199.309 13.616 199.429 13.594 199.525 13.55C199.621 13.506 199.699 13.458 199.759 13.406C199.819 13.35 199.859 13.308 199.879 13.28C199.915 13.228 199.943 13.198 199.963 13.19C199.983 13.178 200.015 13.172 200.059 13.172H200.347C200.387 13.172 200.419 13.184 200.443 13.208C200.471 13.228 200.483 13.258 200.479 13.298C200.475 13.358 200.443 13.432 200.383 13.52C200.323 13.604 200.237 13.688 200.125 13.772C200.013 13.856 199.877 13.926 199.717 13.982C199.557 14.034 199.373 14.06 199.165 14.06ZM198.349 12.212H199.993V12.194C199.993 12.014 199.959 11.854 199.891 11.714C199.827 11.574 199.733 11.464 199.609 11.384C199.485 11.3 199.337 11.258 199.165 11.258C198.993 11.258 198.845 11.3 198.721 11.384C198.601 11.464 198.509 11.574 198.445 11.714C198.381 11.854 198.349 12.014 198.349 12.194V12.212ZM202.42 14.06C202.2 14.06 202.01 14.022 201.85 13.946C201.69 13.866 201.558 13.76 201.454 13.628C201.354 13.492 201.278 13.338 201.226 13.166C201.178 12.994 201.15 12.812 201.142 12.62C201.138 12.556 201.136 12.496 201.136 12.44C201.136 12.384 201.138 12.324 201.142 12.26C201.15 12.072 201.178 11.892 201.226 11.72C201.278 11.548 201.354 11.394 201.454 11.258C201.558 11.122 201.69 11.016 201.85 10.94C202.01 10.86 202.2 10.82 202.42 10.82C202.656 10.82 202.852 10.862 203.008 10.946C203.164 11.03 203.292 11.134 203.392 11.258V9.878C203.392 9.838 203.404 9.806 203.428 9.782C203.456 9.754 203.49 9.74 203.53 9.74H203.818C203.858 9.74 203.89 9.754 203.914 9.782C203.942 9.806 203.956 9.838 203.956 9.878V13.862C203.956 13.902 203.942 13.936 203.914 13.964C203.89 13.988 203.858 14 203.818 14H203.548C203.504 14 203.47 13.988 203.446 13.964C203.422 13.936 203.41 13.902 203.41 13.862V13.61C203.31 13.738 203.18 13.846 203.02 13.934C202.86 14.018 202.66 14.06 202.42 14.06ZM202.546 13.574C202.746 13.574 202.906 13.528 203.026 13.436C203.146 13.344 203.236 13.228 203.296 13.088C203.356 12.944 203.388 12.798 203.392 12.65C203.396 12.586 203.398 12.51 203.398 12.422C203.398 12.33 203.396 12.252 203.392 12.188C203.388 12.048 203.354 11.91 203.29 11.774C203.23 11.638 203.138 11.526 203.014 11.438C202.894 11.35 202.738 11.306 202.546 11.306C202.342 11.306 202.18 11.352 202.06 11.444C201.94 11.532 201.854 11.65 201.802 11.798C201.75 11.942 201.72 12.098 201.712 12.266C201.708 12.382 201.708 12.498 201.712 12.614C201.72 12.782 201.75 12.94 201.802 13.088C201.854 13.232 201.94 13.35 202.06 13.442C202.18 13.53 202.342 13.574 202.546 13.574ZM207.861 14.06C207.621 14.06 207.421 14.018 207.261 13.934C207.101 13.846 206.973 13.738 206.877 13.61V13.862C206.877 13.902 206.863 13.936 206.835 13.964C206.811 13.988 206.779 14 206.739 14H206.463C206.423 14 206.389 13.988 206.361 13.964C206.337 13.936 206.325 13.902 206.325 13.862V9.878C206.325 9.838 206.337 9.806 206.361 9.782C206.389 9.754 206.423 9.74 206.463 9.74H206.751C206.795 9.74 206.829 9.754 206.853 9.782C206.877 9.806 206.889 9.838 206.889 9.878V11.258C206.989 11.134 207.117 11.03 207.273 10.946C207.433 10.862 207.629 10.82 207.861 10.82C208.085 10.82 208.275 10.86 208.431 10.94C208.591 11.016 208.721 11.122 208.821 11.258C208.925 11.394 209.003 11.548 209.055 11.72C209.107 11.892 209.135 12.072 209.139 12.26C209.143 12.324 209.145 12.384 209.145 12.44C209.145 12.496 209.143 12.556 209.139 12.62C209.135 12.812 209.107 12.994 209.055 13.166C209.003 13.338 208.925 13.492 208.821 13.628C208.721 13.76 208.591 13.866 208.431 13.946C208.275 14.022 208.085 14.06 207.861 14.06ZM207.735 13.574C207.943 13.574 208.105 13.53 208.221 13.442C208.341 13.35 208.427 13.232 208.479 13.088C208.531 12.94 208.561 12.782 208.569 12.614C208.573 12.498 208.573 12.382 208.569 12.266C208.561 12.098 208.531 11.942 208.479 11.798C208.427 11.65 208.341 11.532 208.221 11.444C208.105 11.352 207.943 11.306 207.735 11.306C207.547 11.306 207.391 11.35 207.267 11.438C207.143 11.526 207.049 11.638 206.985 11.774C206.925 11.91 206.893 12.048 206.889 12.188C206.885 12.252 206.883 12.33 206.883 12.422C206.883 12.51 206.885 12.586 206.889 12.65C206.897 12.798 206.929 12.944 206.985 13.088C207.045 13.228 207.135 13.344 207.255 13.436C207.379 13.528 207.539 13.574 207.735 13.574ZM210.316 15.14C210.284 15.14 210.256 15.128 210.232 15.104C210.208 15.08 210.196 15.052 210.196 15.02C210.196 15.004 210.198 14.988 210.202 14.972C210.206 14.956 210.214 14.936 210.226 14.912L210.688 13.814L209.542 11.108C209.522 11.06 209.512 11.026 209.512 11.006C209.512 10.97 209.524 10.94 209.548 10.916C209.572 10.892 209.602 10.88 209.638 10.88H209.932C209.972 10.88 210.004 10.89 210.028 10.91C210.052 10.93 210.068 10.954 210.076 10.982L210.988 13.166L211.924 10.982C211.936 10.954 211.952 10.93 211.972 10.91C211.996 10.89 212.03 10.88 212.074 10.88H212.356C212.392 10.88 212.422 10.892 212.446 10.916C212.47 10.94 212.482 10.968 212.482 11C212.482 11.02 212.472 11.056 212.452 11.108L210.748 15.038C210.736 15.066 210.718 15.09 210.694 15.11C210.674 15.13 210.642 15.14 210.598 15.14H210.316Z" fill="#111322"/>
</svg>
