<svg width="263" height="25" viewBox="0 0 263 25" fill="none" xmlns="http://www.w3.org/2000/svg">
<g clip-path="url(#clip0_5220_5446)">
<rect width="25" height="25" fill="black"/>
<path d="M17.3669 17.4242L13.2289 13.2862L17.9781 8.53703L22.6191 13.178V22.6191H2.38095V18.7357L8.84264 12.274L15.6799 19.1113L17.3606 17.4306L17.3669 17.4242ZM2.38095 2.38095H22.6191V9.81028L17.9781 5.16934L11.5419 11.6056L8.84264 8.90627L2.38095 15.368V2.38095ZM0 25H25V0H0V25Z" fill="#446A68"/>
</g>
<g clip-path="url(#clip1_5220_5446)">
<path d="M128.069 18.9868H124.462C124.462 16.9893 124.475 15.0453 124.456 13.1013C124.456 12.5802 124.41 12.0457 124.285 11.538C124.114 10.8165 123.636 10.3556 122.882 10.2754C122.114 10.1885 121.439 10.4557 121.143 11.1839C120.887 11.8253 120.73 12.5468 120.71 13.2415C120.651 15.1254 120.69 17.016 120.69 18.9734H117.031C117.011 18.6861 116.978 18.3922 116.978 18.0982C116.978 16.3346 116.985 14.5643 116.972 12.8006C116.972 12.3731 116.919 11.9322 116.815 11.5179C116.624 10.7363 116.099 10.3088 115.312 10.262C114.506 10.2153 113.81 10.5025 113.561 11.3042C113.338 12.0257 113.24 12.814 113.22 13.5756C113.174 15.3659 113.207 17.1496 113.207 18.9934H109.547V7.40944H113.148C113.181 7.69672 113.214 7.99065 113.272 8.49836C114.237 7.33595 115.424 7.00194 116.742 7.07543C118.113 7.14892 119.176 7.75681 119.923 9.09293C121.17 7.36935 122.816 6.86164 124.771 7.14224C126.568 7.40276 127.906 8.42487 128.023 10.242C128.207 13.1279 128.069 16.0406 128.069 18.9868Z" fill="black"/>
<path d="M134.838 8.63806C136.301 7.11491 137.849 6.82763 139.561 7.14164C141.279 7.4556 142.611 8.64474 142.689 10.4017C142.814 13.2409 142.722 16.0868 142.722 18.9862H139.088C139.088 17.0889 139.095 15.2384 139.088 13.3879C139.088 12.8668 139.056 12.339 138.977 11.818C138.833 10.8627 138.249 10.3483 137.318 10.2481C136.419 10.1478 135.638 10.4418 135.278 11.3036C135.022 11.9115 134.897 12.6063 134.884 13.2743C134.832 15.1582 134.864 17.0421 134.864 18.9862H131.172V0.0202026H134.838V8.63806Z" fill="black"/>
<path d="M74.5562 0H78.1833V8.63121C79.5932 7.20159 81.0821 6.82746 82.7679 7.11474C84.6698 7.44207 85.9752 8.57776 86.0801 10.5084C86.2244 13.3075 86.1196 16.1267 86.1196 18.986H82.5315C82.5122 18.6653 82.486 18.3447 82.4791 18.0173C82.4529 16.1 82.4989 14.176 82.394 12.2587C82.3154 10.8491 81.5939 10.2011 80.4066 10.2011C79.3242 10.2011 78.3995 11.0162 78.3208 12.2587C78.2095 14.0491 78.2422 15.8462 78.216 17.6432C78.216 18.0708 78.216 18.4983 78.216 18.9793H74.5626V0H74.5562Z" fill="black"/>
<path d="M186.563 13.16C186.563 11.4899 185.33 10.2406 183.677 10.2473C182.109 10.254 180.883 11.5233 180.87 13.1534C180.863 14.8368 182.063 16.0994 183.703 16.1262C185.277 16.1462 186.556 14.8168 186.556 13.1667M186.314 8.35008C186.346 7.98262 186.366 7.70874 186.392 7.39473H190V18.9587H186.419C186.386 18.6714 186.346 18.3441 186.294 17.8497C185.1 19.2059 183.664 19.5733 182.017 19.3462C180.378 19.119 179.118 18.3107 178.167 16.9612C176.449 14.5162 176.738 10.6615 178.784 8.55715C180.732 6.55301 183.637 6.45279 186.314 8.35008Z" fill="black"/>
<path d="M159.442 7.35569C158.216 9.7072 157.062 11.9051 155.914 14.1097C154.13 17.5234 152.346 20.9305 150.588 24.3509C150.346 24.8319 150.07 25.0189 149.539 24.9989C148.45 24.9588 147.354 24.9855 146.108 24.9855C146.272 24.6315 146.377 24.3642 146.508 24.1104C147.545 22.1864 148.561 20.2491 149.631 18.3451C149.965 17.7506 149.998 17.2963 149.643 16.675C148.057 13.8291 146.528 10.9364 144.987 8.0638C144.888 7.87677 144.81 7.68302 144.652 7.35569C146.049 7.35569 147.341 7.32229 148.627 7.3891C148.857 7.40246 149.126 7.77656 149.27 8.0438C150.214 9.84082 151.119 11.6513 152.116 13.6019C153.094 11.6579 154.012 9.86755 154.878 8.05048C155.12 7.54272 155.396 7.31561 155.973 7.34233C157.062 7.39578 158.157 7.35569 159.442 7.35569Z" fill="black"/>
<path d="M36.9923 11.771H31.9485V18.986H28V1.65005H37.3662V5.03707H31.9747V8.29048H36.9923V11.771Z" fill="black"/>
<path d="M96.6079 11.5703C96.3131 10.2476 95.4602 9.58625 94.1878 9.61965C92.9679 9.65301 92.1282 10.3678 91.925 11.5703H96.6079ZM100.124 13.8684H91.6757C91.7875 15.0375 92.1282 15.9461 93.2304 16.3536C94.3386 16.7678 95.467 16.4538 96.2934 15.572C96.4506 15.405 96.7394 15.258 96.9555 15.278C97.9198 15.3448 98.8841 15.4651 99.8483 15.572C99.6713 17.9569 96.7785 19.6805 93.4599 19.3999C89.9247 19.1059 87.6287 16.3736 87.9042 12.8062C88.2127 8.8447 90.8167 6.67353 94.8633 6.99418C98.2412 7.26142 100.419 10.0405 100.124 13.8684Z" fill="black"/>
<path d="M55.0879 11.5511C54.7337 10.2083 53.9007 9.57367 52.6217 9.62044C51.4346 9.6672 50.595 10.382 50.4113 11.5511H55.0879ZM58.5576 15.8133C58.0132 16.5615 57.5672 17.4166 56.9047 18.0312C54.7272 20.0554 50.1818 19.8683 48.0895 17.7573C46.3251 15.9736 45.8463 13.0542 46.8892 10.509C47.8337 8.21755 49.7423 6.995 52.3725 6.98832C56.4718 6.98164 58.997 9.75406 58.5313 13.8693H50.2081C50.2146 15.1719 50.7393 16.0137 51.6838 16.3611C52.766 16.7552 53.9663 16.4479 54.6943 15.6596C54.8846 15.4592 55.2256 15.2788 55.488 15.2922C56.4259 15.339 57.3573 15.4726 58.2952 15.5661C58.3805 15.6463 58.4658 15.7264 58.551 15.8066" fill="black"/>
<path d="M64.6908 0H61.0439V18.9726H64.6908V0Z" fill="black"/>
<path d="M71.3665 0H67.7983V18.986H71.3665V0Z" fill="black"/>
<path d="M170.04 10.5153C169.581 10.4552 169.234 10.4084 168.82 10.355V7.42228C169.168 7.38888 169.516 7.35547 170.008 7.30871V3.6478H173.766V7.32875H175.989V10.3951H173.825V18.9662H170.04V10.5153Z" fill="black"/>
<path d="M165.353 10.4019V18.973H161.602V10.5088C161.129 10.442 160.749 10.3886 160.355 10.3351V7.40241C160.756 7.369 161.11 7.34896 161.562 7.30887V3.668H165.347V7.34896H167.531V10.3953H165.347L165.353 10.4019Z" fill="black"/>
<path d="M43.7603 7.38905H40.166V24.9454H43.7603V7.38905Z" fill="black"/>
<path d="M106.355 7.39578H102.741V18.9932H106.355V7.39578Z" fill="black"/>
<path d="M41.942 0.260167C43.2144 0.253487 44.1655 1.19544 44.1523 2.45137C44.1392 3.66054 43.1947 4.62922 42.001 4.64926C40.7679 4.66931 39.7972 3.68727 39.8037 2.41797C39.8037 1.16872 40.7024 0.266847 41.942 0.260167Z" fill="black"/>
<path d="M104.568 4.64254C103.355 4.6559 102.43 3.74067 102.404 2.4981C102.378 1.18204 103.25 0.266812 104.535 0.260132C105.769 0.260132 106.707 1.15532 106.739 2.37117C106.772 3.60038 105.795 4.62918 104.568 4.64254Z" fill="black"/>
</g>
<path d="M213.88 7C213.821 7 213.776 6.984 213.744 6.952C213.712 6.91467 213.696 6.86933 213.696 6.816V1.592C213.696 1.53333 213.712 1.488 213.744 1.456C213.776 1.41867 213.821 1.4 213.88 1.4H215.912C216.307 1.4 216.648 1.464 216.936 1.592C217.229 1.72 217.456 1.912 217.616 2.168C217.776 2.41867 217.856 2.73333 217.856 3.112C217.856 3.49067 217.776 3.80533 217.616 4.056C217.456 4.30667 217.229 4.496 216.936 4.624C216.648 4.752 216.307 4.816 215.912 4.816H214.496V6.816C214.496 6.86933 214.477 6.91467 214.44 6.952C214.408 6.984 214.363 7 214.304 7H213.88ZM214.488 4.144H215.872C216.267 4.144 216.563 4.056 216.76 3.88C216.957 3.704 217.056 3.448 217.056 3.112C217.056 2.78133 216.96 2.52533 216.768 2.344C216.576 2.16267 216.277 2.072 215.872 2.072H214.488V4.144ZM220.374 7.08C219.969 7.08 219.63 7.00267 219.358 6.848C219.086 6.69333 218.878 6.48 218.734 6.208C218.59 5.93067 218.51 5.616 218.494 5.264C218.489 5.17333 218.486 5.05867 218.486 4.92C218.486 4.776 218.489 4.66133 218.494 4.576C218.51 4.21867 218.59 3.904 218.734 3.632C218.883 3.36 219.094 3.14667 219.366 2.992C219.638 2.83733 219.974 2.76 220.374 2.76C220.774 2.76 221.11 2.83733 221.382 2.992C221.654 3.14667 221.862 3.36 222.006 3.632C222.155 3.904 222.238 4.21867 222.254 4.576C222.259 4.66133 222.262 4.776 222.262 4.92C222.262 5.05867 222.259 5.17333 222.254 5.264C222.238 5.616 222.158 5.93067 222.014 6.208C221.87 6.48 221.662 6.69333 221.39 6.848C221.118 7.00267 220.779 7.08 220.374 7.08ZM220.374 6.464C220.705 6.464 220.969 6.36 221.166 6.152C221.363 5.93867 221.47 5.62933 221.486 5.224C221.491 5.144 221.494 5.04267 221.494 4.92C221.494 4.79733 221.491 4.696 221.486 4.616C221.47 4.21067 221.363 3.904 221.166 3.696C220.969 3.48267 220.705 3.376 220.374 3.376C220.043 3.376 219.777 3.48267 219.574 3.696C219.377 3.904 219.273 4.21067 219.262 4.616C219.257 4.696 219.254 4.79733 219.254 4.92C219.254 5.04267 219.257 5.144 219.262 5.224C219.273 5.62933 219.377 5.93867 219.574 6.152C219.777 6.36 220.043 6.464 220.374 6.464ZM224.259 7C224.189 7 224.136 6.984 224.099 6.952C224.061 6.91467 224.029 6.864 224.003 6.8L222.867 3.088C222.856 3.06133 222.851 3.03467 222.851 3.008C222.851 2.96 222.867 2.92 222.899 2.888C222.936 2.856 222.976 2.84 223.019 2.84H223.371C223.429 2.84 223.475 2.856 223.507 2.888C223.539 2.92 223.56 2.94933 223.571 2.976L224.459 5.992L225.411 3.008C225.421 2.97067 225.443 2.93333 225.475 2.896C225.512 2.85867 225.565 2.84 225.635 2.84H225.907C225.976 2.84 226.029 2.85867 226.067 2.896C226.104 2.93333 226.125 2.97067 226.131 3.008L227.082 5.992L227.971 2.976C227.976 2.94933 227.995 2.92 228.027 2.888C228.059 2.856 228.104 2.84 228.163 2.84H228.515C228.563 2.84 228.603 2.856 228.635 2.888C228.667 2.92 228.683 2.96 228.683 3.008C228.683 3.03467 228.677 3.06133 228.667 3.088L227.531 6.8C227.515 6.864 227.485 6.91467 227.443 6.952C227.405 6.984 227.349 7 227.275 7H226.963C226.893 7 226.834 6.984 226.786 6.952C226.744 6.91467 226.715 6.864 226.699 6.8L225.771 3.936L224.843 6.8C224.821 6.864 224.789 6.91467 224.747 6.952C224.704 6.984 224.645 7 224.571 7H224.259ZM231.115 7.08C230.566 7.08 230.129 6.912 229.803 6.576C229.478 6.23467 229.299 5.77067 229.267 5.184C229.262 5.11467 229.259 5.02667 229.259 4.92C229.259 4.808 229.262 4.71733 229.267 4.648C229.289 4.26933 229.377 3.93867 229.531 3.656C229.686 3.368 229.897 3.14667 230.163 2.992C230.435 2.83733 230.753 2.76 231.115 2.76C231.521 2.76 231.859 2.84533 232.131 3.016C232.409 3.18667 232.619 3.42933 232.763 3.744C232.907 4.05867 232.979 4.42667 232.979 4.848V4.984C232.979 5.04267 232.961 5.088 232.923 5.12C232.891 5.152 232.849 5.168 232.795 5.168H230.027C230.027 5.17333 230.027 5.184 230.027 5.2C230.027 5.216 230.027 5.22933 230.027 5.24C230.038 5.45867 230.086 5.664 230.171 5.856C230.257 6.04267 230.379 6.19467 230.539 6.312C230.699 6.42933 230.891 6.488 231.115 6.488C231.307 6.488 231.467 6.45867 231.595 6.4C231.723 6.34133 231.827 6.27733 231.907 6.208C231.987 6.13333 232.041 6.07733 232.067 6.04C232.115 5.97067 232.153 5.93067 232.179 5.92C232.206 5.904 232.249 5.896 232.307 5.896H232.691C232.745 5.896 232.787 5.912 232.819 5.944C232.857 5.97067 232.873 6.01067 232.867 6.064C232.862 6.144 232.819 6.24267 232.739 6.36C232.659 6.472 232.545 6.584 232.395 6.696C232.246 6.808 232.065 6.90133 231.851 6.976C231.638 7.04533 231.393 7.08 231.115 7.08ZM230.027 4.616H232.219V4.592C232.219 4.352 232.174 4.13867 232.083 3.952C231.998 3.76533 231.873 3.61867 231.707 3.512C231.542 3.4 231.345 3.344 231.115 3.344C230.886 3.344 230.689 3.4 230.523 3.512C230.363 3.61867 230.241 3.76533 230.155 3.952C230.07 4.13867 230.027 4.352 230.027 4.592V4.616ZM234.12 7C234.066 7 234.021 6.984 233.984 6.952C233.952 6.91467 233.936 6.86933 233.936 6.816V3.032C233.936 2.97867 233.952 2.93333 233.984 2.896C234.021 2.85867 234.066 2.84 234.12 2.84H234.488C234.541 2.84 234.586 2.85867 234.624 2.896C234.661 2.93333 234.68 2.97867 234.68 3.032V3.384C234.786 3.20267 234.933 3.06667 235.12 2.976C235.306 2.88533 235.53 2.84 235.792 2.84H236.112C236.165 2.84 236.208 2.85867 236.24 2.896C236.272 2.928 236.288 2.97067 236.288 3.024V3.352C236.288 3.40533 236.272 3.448 236.24 3.48C236.208 3.512 236.165 3.528 236.112 3.528H235.632C235.344 3.528 235.117 3.61333 234.952 3.784C234.786 3.94933 234.704 4.176 234.704 4.464V6.816C234.704 6.86933 234.685 6.91467 234.648 6.952C234.61 6.984 234.565 7 234.512 7H234.12ZM238.553 7.08C238.003 7.08 237.566 6.912 237.241 6.576C236.915 6.23467 236.737 5.77067 236.705 5.184C236.699 5.11467 236.697 5.02667 236.697 4.92C236.697 4.808 236.699 4.71733 236.705 4.648C236.726 4.26933 236.814 3.93867 236.969 3.656C237.123 3.368 237.334 3.14667 237.601 2.992C237.873 2.83733 238.19 2.76 238.553 2.76C238.958 2.76 239.297 2.84533 239.569 3.016C239.846 3.18667 240.057 3.42933 240.201 3.744C240.345 4.05867 240.417 4.42667 240.417 4.848V4.984C240.417 5.04267 240.398 5.088 240.361 5.12C240.329 5.152 240.286 5.168 240.233 5.168H237.465C237.465 5.17333 237.465 5.184 237.465 5.2C237.465 5.216 237.465 5.22933 237.465 5.24C237.475 5.45867 237.523 5.664 237.609 5.856C237.694 6.04267 237.817 6.19467 237.977 6.312C238.137 6.42933 238.329 6.488 238.553 6.488C238.745 6.488 238.905 6.45867 239.033 6.4C239.161 6.34133 239.265 6.27733 239.345 6.208C239.425 6.13333 239.478 6.07733 239.505 6.04C239.553 5.97067 239.59 5.93067 239.617 5.92C239.643 5.904 239.686 5.896 239.745 5.896H240.129C240.182 5.896 240.225 5.912 240.257 5.944C240.294 5.97067 240.31 6.01067 240.305 6.064C240.299 6.144 240.257 6.24267 240.177 6.36C240.097 6.472 239.982 6.584 239.833 6.696C239.683 6.808 239.502 6.90133 239.289 6.976C239.075 7.04533 238.83 7.08 238.553 7.08ZM237.465 4.616H239.657V4.592C239.657 4.352 239.611 4.13867 239.521 3.952C239.435 3.76533 239.31 3.61867 239.145 3.512C238.979 3.4 238.782 3.344 238.553 3.344C238.323 3.344 238.126 3.4 237.961 3.512C237.801 3.61867 237.678 3.76533 237.593 3.952C237.507 4.13867 237.465 4.352 237.465 4.592V4.616ZM242.893 7.08C242.6 7.08 242.347 7.02933 242.133 6.928C241.92 6.82133 241.744 6.68 241.605 6.504C241.472 6.32267 241.371 6.11733 241.301 5.888C241.237 5.65867 241.2 5.416 241.189 5.16C241.184 5.07467 241.181 4.99467 241.181 4.92C241.181 4.84533 241.184 4.76533 241.189 4.68C241.2 4.42933 241.237 4.18933 241.301 3.96C241.371 3.73067 241.472 3.52533 241.605 3.344C241.744 3.16267 241.92 3.02133 242.133 2.92C242.347 2.81333 242.6 2.76 242.893 2.76C243.208 2.76 243.469 2.816 243.677 2.928C243.885 3.04 244.056 3.17867 244.189 3.344V1.504C244.189 1.45067 244.205 1.408 244.237 1.376C244.275 1.33867 244.32 1.32 244.373 1.32H244.757C244.811 1.32 244.853 1.33867 244.885 1.376C244.923 1.408 244.941 1.45067 244.941 1.504V6.816C244.941 6.86933 244.923 6.91467 244.885 6.952C244.853 6.984 244.811 7 244.757 7H244.397C244.339 7 244.293 6.984 244.261 6.952C244.229 6.91467 244.213 6.86933 244.213 6.816V6.48C244.08 6.65067 243.907 6.79467 243.693 6.912C243.48 7.024 243.213 7.08 242.893 7.08ZM243.061 6.432C243.328 6.432 243.541 6.37067 243.701 6.248C243.861 6.12533 243.981 5.97067 244.061 5.784C244.141 5.592 244.184 5.39733 244.189 5.2C244.195 5.11467 244.197 5.01333 244.197 4.896C244.197 4.77333 244.195 4.66933 244.189 4.584C244.184 4.39733 244.139 4.21333 244.053 4.032C243.973 3.85067 243.851 3.70133 243.685 3.584C243.525 3.46667 243.317 3.408 243.061 3.408C242.789 3.408 242.573 3.46933 242.413 3.592C242.253 3.70933 242.139 3.86667 242.069 4.064C242 4.256 241.96 4.464 241.949 4.688C241.944 4.84267 241.944 4.99733 241.949 5.152C241.96 5.376 242 5.58667 242.069 5.784C242.139 5.976 242.253 6.13333 242.413 6.256C242.573 6.37333 242.789 6.432 243.061 6.432ZM250.148 7.08C249.828 7.08 249.561 7.024 249.348 6.912C249.135 6.79467 248.964 6.65067 248.836 6.48V6.816C248.836 6.86933 248.817 6.91467 248.78 6.952C248.748 6.984 248.705 7 248.652 7H248.284C248.231 7 248.185 6.984 248.148 6.952C248.116 6.91467 248.1 6.86933 248.1 6.816V1.504C248.1 1.45067 248.116 1.408 248.148 1.376C248.185 1.33867 248.231 1.32 248.284 1.32H248.668C248.727 1.32 248.772 1.33867 248.804 1.376C248.836 1.408 248.852 1.45067 248.852 1.504V3.344C248.985 3.17867 249.156 3.04 249.364 2.928C249.577 2.816 249.839 2.76 250.148 2.76C250.447 2.76 250.7 2.81333 250.908 2.92C251.121 3.02133 251.295 3.16267 251.428 3.344C251.567 3.52533 251.671 3.73067 251.74 3.96C251.809 4.18933 251.847 4.42933 251.852 4.68C251.857 4.76533 251.86 4.84533 251.86 4.92C251.86 4.99467 251.857 5.07467 251.852 5.16C251.847 5.416 251.809 5.65867 251.74 5.888C251.671 6.11733 251.567 6.32267 251.428 6.504C251.295 6.68 251.121 6.82133 250.908 6.928C250.7 7.02933 250.447 7.08 250.148 7.08ZM249.98 6.432C250.257 6.432 250.473 6.37333 250.628 6.256C250.788 6.13333 250.903 5.976 250.972 5.784C251.041 5.58667 251.081 5.376 251.092 5.152C251.097 4.99733 251.097 4.84267 251.092 4.688C251.081 4.464 251.041 4.256 250.972 4.064C250.903 3.86667 250.788 3.70933 250.628 3.592C250.473 3.46933 250.257 3.408 249.98 3.408C249.729 3.408 249.521 3.46667 249.356 3.584C249.191 3.70133 249.065 3.85067 248.98 4.032C248.9 4.21333 248.857 4.39733 248.852 4.584C248.847 4.66933 248.844 4.77333 248.844 4.896C248.844 5.01333 248.847 5.11467 248.852 5.2C248.863 5.39733 248.905 5.592 248.98 5.784C249.06 5.97067 249.18 6.12533 249.34 6.248C249.505 6.37067 249.719 6.432 249.98 6.432ZM253.422 8.52C253.379 8.52 253.342 8.504 253.31 8.472C253.278 8.44 253.262 8.40267 253.262 8.36C253.262 8.33867 253.264 8.31733 253.27 8.296C253.275 8.27467 253.286 8.248 253.302 8.216L253.918 6.752L252.39 3.144C252.363 3.08 252.35 3.03467 252.35 3.008C252.35 2.96 252.366 2.92 252.398 2.888C252.43 2.856 252.47 2.84 252.518 2.84H252.91C252.963 2.84 253.006 2.85333 253.038 2.88C253.07 2.90667 253.091 2.93867 253.102 2.976L254.318 5.888L255.566 2.976C255.582 2.93867 255.603 2.90667 255.63 2.88C255.662 2.85333 255.707 2.84 255.766 2.84H256.142C256.19 2.84 256.23 2.856 256.262 2.888C256.294 2.92 256.31 2.95733 256.31 3C256.31 3.02667 256.296 3.07467 256.27 3.144L253.998 8.384C253.982 8.42133 253.958 8.45333 253.926 8.48C253.899 8.50667 253.856 8.52 253.798 8.52H253.422Z" fill="#111322"/>
<path d="M225.155 12.9966C225.155 14.1998 224.183 15.1751 222.985 15.1751C221.786 15.1751 220.814 14.1998 220.814 12.9966C220.814 11.7935 221.786 10.8182 222.985 10.8182C224.183 10.8182 225.155 11.7935 225.155 12.9966Z" fill="black"/>
<path d="M216.039 20.6212C216.039 21.4633 215.359 22.1461 214.519 22.1461C213.68 22.1461 213 21.4633 213 20.6212C213 19.779 213.68 19.0962 214.519 19.0962C215.359 19.0962 216.039 19.779 216.039 20.6212Z" fill="#1F1F1F"/>
<path d="M230.468 21.6571C230.468 22.4993 229.788 23.182 228.949 23.182C228.11 23.182 227.43 22.4993 227.43 21.6571C227.43 20.8149 228.11 20.1322 228.949 20.1322C229.788 20.1322 230.468 20.8149 230.468 21.6571Z" fill="#1F1F1F"/>
<path d="M224 20.6849C224 21.5271 223.32 22.2098 222.481 22.2098C221.642 22.2098 220.961 21.5271 220.961 20.6849C220.961 19.8427 221.642 19.16 222.481 19.16C223.32 19.16 224 19.8427 224 20.6849Z" fill="#1F1F1F"/>
<path d="M220.38 17.1359C220.38 18.2187 219.506 19.0965 218.427 19.0965C217.348 19.0965 216.473 18.2187 216.473 17.1359C216.473 16.0531 217.348 15.1752 218.427 15.1752C219.506 15.1752 220.38 16.0531 220.38 17.1359Z" fill="#1F1F1F"/>
<path d="M227.854 17.625C227.854 18.7079 226.979 19.5856 225.9 19.5856C224.821 19.5856 223.947 18.7079 223.947 17.625C223.947 16.5422 224.821 15.6644 225.9 15.6644C226.979 15.6644 227.854 16.5422 227.854 17.625Z" fill="#1F1F1F"/>
<path d="M241.046 11.464C241.412 11.464 241.736 11.5396 242.02 11.6909C242.31 11.8364 242.536 12.0633 242.699 12.3716C242.867 12.68 242.951 13.0785 242.951 13.5673V16.2727H241.299V13.8378C241.299 13.5004 241.235 13.256 241.107 13.1047C240.98 12.9476 240.806 12.8691 240.585 12.8691C240.429 12.8691 240.287 12.9069 240.159 12.9825C240.032 13.0582 239.933 13.1745 239.864 13.3316C239.794 13.4829 239.759 13.6807 239.759 13.9251V16.2727H238.107V13.8378C238.107 13.5004 238.043 13.256 237.916 13.1047C237.794 12.9476 237.62 12.8691 237.394 12.8691C237.232 12.8691 237.087 12.9069 236.959 12.9825C236.838 13.0582 236.739 13.1745 236.664 13.3316C236.594 13.4829 236.559 13.6807 236.559 13.9251V16.2727H234.907V11.5425H236.481V12.8604L236.168 12.4851C236.342 12.1476 236.58 11.8945 236.881 11.7258C237.183 11.5513 237.519 11.464 237.89 11.464C238.313 11.464 238.684 11.5745 239.003 11.7956C239.328 12.0109 239.545 12.3484 239.655 12.808L239.116 12.6945C239.284 12.3105 239.536 12.0109 239.872 11.7956C240.214 11.5745 240.606 11.464 241.046 11.464ZM243.733 16.2727V11.5425H245.385V16.2727H243.733ZM244.559 11.0189C244.257 11.0189 244.014 10.9345 243.828 10.7658C243.643 10.5971 243.55 10.3876 243.55 10.1375C243.55 9.88727 243.643 9.67781 243.828 9.50909C244.014 9.34036 244.257 9.256 244.559 9.256C244.86 9.256 245.104 9.33745 245.289 9.50036C245.475 9.65745 245.567 9.86109 245.567 10.1113C245.567 10.3731 245.475 10.5913 245.289 10.7658C245.109 10.9345 244.866 11.0189 244.559 11.0189ZM249.267 11.464C249.633 11.464 249.963 11.5396 250.259 11.6909C250.554 11.8364 250.786 12.0633 250.954 12.3716C251.128 12.68 251.215 13.0785 251.215 13.5673V16.2727H249.563V13.8378C249.563 13.5004 249.493 13.256 249.354 13.1047C249.221 12.9476 249.032 12.8691 248.789 12.8691C248.615 12.8691 248.456 12.9098 248.311 12.9913C248.166 13.0669 248.053 13.1862 247.972 13.3491C247.89 13.512 247.85 13.7244 247.85 13.9862V16.2727H246.198V11.5425H247.772V12.8865L247.467 12.4938C247.647 12.1505 247.893 11.8945 248.206 11.7258C248.519 11.5513 248.873 11.464 249.267 11.464Z" fill="black"/>
<path d="M237.012 24.3513C236.409 24.3513 235.939 24.2029 235.603 23.9062C235.267 23.6036 235.099 23.1498 235.099 22.5447V18.4865H236.751V22.5273C236.751 22.696 236.797 22.8298 236.89 22.9287C236.983 23.0218 237.101 23.0684 237.246 23.0684C237.444 23.0684 237.612 23.0189 237.751 22.92L238.159 24.0807C238.02 24.1738 237.849 24.2407 237.646 24.2815C237.444 24.328 237.232 24.3513 237.012 24.3513ZM234.412 20.9564V19.7171H237.829V20.9564H234.412ZM240.765 24.3513C240.249 24.3513 239.791 24.2465 239.391 24.0371C238.991 23.8276 238.675 23.5396 238.443 23.1731C238.217 22.8007 238.104 22.376 238.104 21.8989C238.104 21.4218 238.217 21 238.443 20.6335C238.675 20.2669 238.991 19.9818 239.391 19.7782C239.791 19.5687 240.249 19.464 240.765 19.464C241.281 19.464 241.739 19.5687 242.139 19.7782C242.545 19.9818 242.861 20.2669 243.087 20.6335C243.313 21 243.426 21.4218 243.426 21.8989C243.426 22.376 243.313 22.8007 243.087 23.1731C242.861 23.5396 242.545 23.8276 242.139 24.0371C241.739 24.2465 241.281 24.3513 240.765 24.3513ZM240.765 23.0335C240.956 23.0335 241.124 22.9898 241.269 22.9025C241.42 22.8153 241.539 22.6873 241.626 22.5185C241.713 22.344 241.756 22.1375 241.756 21.8989C241.756 21.6604 241.713 21.4596 241.626 21.2967C241.539 21.128 241.42 21 241.269 20.9127C241.124 20.8255 240.956 20.7818 240.765 20.7818C240.58 20.7818 240.411 20.8255 240.261 20.9127C240.116 21 239.997 21.128 239.904 21.2967C239.817 21.4596 239.774 21.6604 239.774 21.8989C239.774 22.1375 239.817 22.344 239.904 22.5185C239.997 22.6873 240.116 22.8153 240.261 22.9025C240.411 22.9898 240.58 23.0335 240.765 23.0335ZM250.07 19.464C250.435 19.464 250.759 19.5396 251.044 19.6909C251.333 19.8364 251.559 20.0633 251.722 20.3716C251.89 20.68 251.974 21.0785 251.974 21.5673V24.2727H250.322V21.8378C250.322 21.5004 250.258 21.256 250.13 21.1047C250.003 20.9476 249.829 20.8691 249.609 20.8691C249.452 20.8691 249.31 20.9069 249.183 20.9825C249.055 21.0582 248.956 21.1745 248.887 21.3316C248.817 21.4829 248.783 21.6807 248.783 21.9251V24.2727H247.13V21.8378C247.13 21.5004 247.067 21.256 246.939 21.1047C246.817 20.9476 246.643 20.8691 246.417 20.8691C246.255 20.8691 246.11 20.9069 245.983 20.9825C245.861 21.0582 245.762 21.1745 245.687 21.3316C245.617 21.4829 245.583 21.6807 245.583 21.9251V24.2727H243.93V19.5425H245.504V20.8604L245.191 20.4851C245.365 20.1476 245.603 19.8945 245.904 19.7258C246.206 19.5513 246.542 19.464 246.913 19.464C247.336 19.464 247.707 19.5745 248.026 19.7956C248.351 20.0109 248.568 20.3484 248.678 20.808L248.139 20.6945C248.307 20.3105 248.559 20.0109 248.896 19.7956C249.238 19.5745 249.629 19.464 250.07 19.464ZM254.86 24.3513C254.257 24.3513 253.788 24.2029 253.451 23.9062C253.115 23.6036 252.947 23.1498 252.947 22.5447V18.4865H254.599V22.5273C254.599 22.696 254.646 22.8298 254.738 22.9287C254.831 23.0218 254.95 23.0684 255.095 23.0684C255.292 23.0684 255.46 23.0189 255.599 22.92L256.008 24.0807C255.869 24.1738 255.698 24.2407 255.495 24.2815C255.292 24.328 255.08 24.3513 254.86 24.3513ZM252.26 20.9564V19.7171H255.678V20.9564H252.26Z" fill="black"/>
<defs>
<clipPath id="clip0_5220_5446">
<rect width="25" height="25" fill="white"/>
</clipPath>
<clipPath id="clip1_5220_5446">
<rect width="162" height="25" fill="white" transform="translate(28)"/>
</clipPath>
</defs>
</svg>
