<svg width="239" height="30" viewBox="0 0 239 30" fill="none" xmlns="http://www.w3.org/2000/svg">
<g clip-path="url(#clip0_6108_46278)">
<path d="M0 15V30H14.9361H29.8722V15V-1.67638e-07H14.9361H0V15ZM26.7428 6.91429V10.7143L24.1823 8.14286L21.6218 5.57143L17.6957 9.51429L13.7697 13.4571L12.3187 11.8571C11.5221 11 10.754 10.2857 10.6402 10.2857C10.498 10.2857 8.76252 11.9143 6.77104 13.9143L3.12947 17.5714V10.3429V3.14286H14.9361H26.7428V6.91429ZM26.7428 21.3429V26.8571H14.9361H3.12947V24.8V22.7143L6.88484 18.9429L10.6687 15.1429L14.7085 19.2L18.7768 23.2857L19.9717 22.0571L21.1951 20.8571L18.8337 18.4857C17.5535 17.2 16.5008 16 16.5008 15.8571C16.5008 15.7143 17.6104 14.4571 18.976 13.0857L21.4796 10.5714L24.0969 13.2L26.7428 15.8571V21.3429Z" fill="black"/>
<path d="M75.3916 14.0001V21.7144H76.9563H78.5211V14.0001V6.28578H76.9563H75.3916V14.0001Z" fill="black"/>
<path d="M80.5127 14.0001V21.7144H82.0774H83.6422V14.0001V6.28578H82.0774H80.5127V14.0001Z" fill="black"/>
<path d="M85.918 14.0001V21.7144H87.4827H89.0474V18.7429C89.0474 15.5144 89.3035 14.8572 90.5837 14.8572C91.7217 14.8572 91.8924 15.3715 91.8924 18.6286V21.7144H93.4571H95.0219V17.7429C95.0219 13.8858 94.9934 13.7429 94.3106 12.8858C93.3718 11.8001 91.6079 11.4572 90.1001 12.1144L89.0474 12.5429V9.40007V6.28578H87.4827H85.918V14.0001Z" fill="black"/>
<path d="M130.015 14.0001V21.7144H131.58H133.145V18.7715C133.145 16.2572 133.23 15.7429 133.657 15.3429C133.941 15.0572 134.453 14.8572 134.766 14.8572C135.819 14.8572 136.103 15.6286 136.217 18.7429L136.331 21.7144H137.867H139.404V18.4858C139.404 16.7429 139.261 14.8286 139.119 14.2572C138.55 12.1715 136.359 11.2001 134.197 12.0858L133.145 12.5429V9.40007V6.28578H131.58H130.015V14.0001Z" fill="black"/>
<path d="M59.3463 7.11421C58.5782 7.97135 58.8342 9.71421 59.83 10.2856C60.5128 10.6571 60.6835 10.6571 61.3947 10.2856C62.9879 9.37135 62.3905 6.57135 60.5981 6.57135C60.1714 6.57135 59.6024 6.82849 59.3463 7.11421Z" fill="black"/>
<path d="M108.023 7.0857C107.454 7.71427 107.398 9.11427 107.91 9.79999C108.905 11.1143 111.238 10.2571 111.238 8.54284C111.238 6.8857 109.076 5.91427 108.023 7.0857Z" fill="black"/>
<path d="M49.5024 14.7144V21.7144H51.2094H52.9164V18.8572V16.0001H54.9079H56.8994V14.4286V12.8572H54.9079H52.9164V11.8572V10.8572H55.0501H57.1839V9.28578V7.71436H53.3432H49.5024V14.7144Z" fill="black"/>
<path d="M153.628 10.5715C153.628 11.6572 153.515 12.0001 153.202 12.0001C152.889 12.0001 152.775 12.3429 152.775 13.4286C152.775 14.5144 152.889 14.8572 153.202 14.8572C153.571 14.8572 153.628 15.4286 153.628 18.2858V21.7144H155.193H156.758V18.2858V14.8572H157.611C158.436 14.8572 158.465 14.8286 158.465 13.4286C158.465 12.0286 158.436 12.0001 157.611 12.0001C156.786 12.0001 156.758 11.9715 156.758 10.5715V9.14293H155.193H153.628V10.5715Z" fill="black"/>
<path d="M160.172 10.5715C160.172 11.6572 160.058 12.0001 159.745 12.0001C159.432 12.0001 159.318 12.3429 159.318 13.4286C159.318 14.5144 159.432 14.8572 159.745 14.8572C160.115 14.8572 160.172 15.4286 160.172 18.2858V21.7144H161.737H163.301V18.2858V14.8572H164.297H165.293V13.4286V12.0001H164.297H163.301V10.5715V9.14293H161.737H160.172V10.5715Z" fill="black"/>
<path d="M66.8567 12.0287C64.979 12.8001 64.0117 14.4572 64.0117 16.9429C64.0117 18.9429 64.5807 20.1429 66.0601 21.2287C67.2834 22.1429 69.8155 22.2001 71.4087 21.3715C72.888 20.6001 74.026 18.9715 73.3717 18.5429C72.7173 18.1144 70.669 18.2572 70.2707 18.7429C69.7301 19.3715 68.0231 19.1715 67.4826 18.3429L67.0843 17.7144H70.4129H73.7415L73.6277 16.1715C73.4855 14.3144 72.4328 12.7144 70.9535 12.1144C69.8724 11.6572 67.9093 11.6287 66.8567 12.0287ZM70.1284 14.8572C70.6405 15.4287 70.6121 15.4287 69.0473 15.4287C67.3972 15.4287 66.9989 15.1144 67.9378 14.6001C68.7059 14.1429 69.5594 14.2287 70.1284 14.8572Z" fill="black"/>
<path d="M98.806 12.2571C97.1844 13 96.3309 14.6571 96.3309 17C96.3024 20.0571 98.2086 21.9714 101.281 22C103.586 22 106.26 20.0571 105.748 18.7429C105.52 18.1429 103.13 18.1143 102.533 18.7143C101.935 19.3143 100.627 19.2571 100.058 18.6286C99.7733 18.3429 99.5742 18 99.5742 17.9143C99.5742 17.8 101.054 17.7143 102.874 17.7143H106.203L106.032 16.2571C105.691 13.4286 104.325 12.0286 101.679 11.8286C100.399 11.7143 99.7164 11.8286 98.806 12.2571ZM102.448 14.8571L103.13 15.4L101.509 15.4286C99.8586 15.4286 99.4319 15.1429 100.371 14.6C101.11 14.1429 101.708 14.2286 102.448 14.8571Z" fill="black"/>
<path d="M117.156 12.1144C116.701 12.3429 116.359 12.4286 116.359 12.2572C116.359 12.1144 115.591 12.0001 114.652 12.0001H112.945V16.8572V21.7144H114.652H116.359V18.6286C116.359 15.3429 116.53 14.8572 117.696 14.8572C118.664 14.8572 118.92 15.6858 118.92 18.8286V21.7144H120.484H122.049V18.9144C122.049 15.9715 122.419 14.8572 123.443 14.8572C124.411 14.8572 124.61 15.4572 124.61 18.6286V21.7144H126.317H128.024L127.995 18.3429C127.995 14.5715 127.682 13.3144 126.516 12.4572C125.406 11.6286 123.244 11.6286 122.106 12.4858C121.31 13.0858 121.253 13.0858 120.741 12.5715C120.001 11.8286 118.123 11.5715 117.156 12.1144Z" fill="black"/>
<path d="M168.138 12.2572C165.378 13.743 164.923 18.5144 167.341 20.7715C168.678 22.0287 170.641 22.343 172.121 21.5715C172.604 21.3144 172.974 21.2572 172.974 21.4287C172.974 21.6001 173.657 21.7144 174.539 21.7144H176.104V16.8572V12.0001H174.539C173.657 12.0001 172.974 12.1144 172.974 12.2858C172.974 12.4572 172.604 12.4001 172.121 12.143C171.011 11.5715 169.361 11.6287 168.138 12.2572ZM172.348 15.3144C173.685 16.2287 172.804 18.8572 171.153 18.8572C170.784 18.8572 170.158 18.6001 169.731 18.2572C167.739 16.6858 170.243 13.8287 172.348 15.3144Z" fill="black"/>
<path d="M58.8911 19.1428V26.2856H60.5981H62.3051V19.1428V11.9999H60.5981H58.8911V19.1428Z" fill="black"/>
<path d="M107.825 16.8572V21.7144H109.389H110.954V16.8572V12.0001H109.389H107.825V16.8572Z" fill="black"/>
<path d="M140.542 12.3714C140.542 12.5714 141.452 14.4285 142.533 16.4856L144.553 20.2285L143.102 22.8285C142.334 24.2571 141.679 25.6285 141.679 25.8856C141.679 26.2285 141.992 26.2856 143.415 26.2285L145.122 26.1428L148.678 19.4285C150.613 15.7428 152.206 12.5428 152.206 12.3428C152.206 12.1142 151.665 11.9999 150.499 11.9999H148.792L147.625 14.3428L146.459 16.6856L145.179 14.3428L143.899 11.9999H142.22C141.025 11.9999 140.542 12.1142 140.542 12.3714Z" fill="black"/>
</g>
<path d="M188.984 9.5C188.925 9.5 188.88 9.484 188.848 9.452C188.816 9.41467 188.8 9.36933 188.8 9.316V4.092C188.8 4.03333 188.816 3.988 188.848 3.956C188.88 3.91867 188.925 3.9 188.984 3.9H191.016C191.411 3.9 191.752 3.964 192.04 4.092C192.333 4.22 192.56 4.412 192.72 4.668C192.88 4.91867 192.96 5.23333 192.96 5.612C192.96 5.99067 192.88 6.30533 192.72 6.556C192.56 6.80667 192.333 6.996 192.04 7.124C191.752 7.252 191.411 7.316 191.016 7.316H189.6V9.316C189.6 9.36933 189.581 9.41467 189.544 9.452C189.512 9.484 189.467 9.5 189.408 9.5H188.984ZM189.592 6.644H190.976C191.371 6.644 191.667 6.556 191.864 6.38C192.061 6.204 192.16 5.948 192.16 5.612C192.16 5.28133 192.064 5.02533 191.872 4.844C191.68 4.66267 191.381 4.572 190.976 4.572H189.592V6.644ZM195.478 9.58C195.073 9.58 194.734 9.50267 194.462 9.348C194.19 9.19333 193.982 8.98 193.838 8.708C193.694 8.43067 193.614 8.116 193.598 7.764C193.593 7.67333 193.59 7.55867 193.59 7.42C193.59 7.276 193.593 7.16133 193.598 7.076C193.614 6.71867 193.694 6.404 193.838 6.132C193.987 5.86 194.198 5.64667 194.47 5.492C194.742 5.33733 195.078 5.26 195.478 5.26C195.878 5.26 196.214 5.33733 196.486 5.492C196.758 5.64667 196.966 5.86 197.11 6.132C197.259 6.404 197.342 6.71867 197.358 7.076C197.363 7.16133 197.366 7.276 197.366 7.42C197.366 7.55867 197.363 7.67333 197.358 7.764C197.342 8.116 197.262 8.43067 197.118 8.708C196.974 8.98 196.766 9.19333 196.494 9.348C196.222 9.50267 195.883 9.58 195.478 9.58ZM195.478 8.964C195.809 8.964 196.073 8.86 196.27 8.652C196.467 8.43867 196.574 8.12933 196.59 7.724C196.595 7.644 196.598 7.54267 196.598 7.42C196.598 7.29733 196.595 7.196 196.59 7.116C196.574 6.71067 196.467 6.404 196.27 6.196C196.073 5.98267 195.809 5.876 195.478 5.876C195.147 5.876 194.881 5.98267 194.678 6.196C194.481 6.404 194.377 6.71067 194.366 7.116C194.361 7.196 194.358 7.29733 194.358 7.42C194.358 7.54267 194.361 7.644 194.366 7.724C194.377 8.12933 194.481 8.43867 194.678 8.652C194.881 8.86 195.147 8.964 195.478 8.964ZM199.363 9.5C199.293 9.5 199.24 9.484 199.203 9.452C199.165 9.41467 199.133 9.364 199.107 9.3L197.971 5.588C197.96 5.56133 197.955 5.53467 197.955 5.508C197.955 5.46 197.971 5.42 198.003 5.388C198.04 5.356 198.08 5.34 198.123 5.34H198.475C198.533 5.34 198.579 5.356 198.611 5.388C198.643 5.42 198.664 5.44933 198.675 5.476L199.563 8.492L200.515 5.508C200.525 5.47067 200.547 5.43333 200.579 5.396C200.616 5.35867 200.669 5.34 200.739 5.34H201.011C201.08 5.34 201.133 5.35867 201.171 5.396C201.208 5.43333 201.229 5.47067 201.235 5.508L202.187 8.492L203.075 5.476C203.08 5.44933 203.099 5.42 203.131 5.388C203.163 5.356 203.208 5.34 203.267 5.34H203.619C203.667 5.34 203.707 5.356 203.739 5.388C203.771 5.42 203.787 5.46 203.787 5.508C203.787 5.53467 203.781 5.56133 203.771 5.588L202.635 9.3C202.619 9.364 202.589 9.41467 202.547 9.452C202.509 9.484 202.453 9.5 202.379 9.5H202.067C201.997 9.5 201.939 9.484 201.891 9.452C201.848 9.41467 201.819 9.364 201.803 9.3L200.875 6.436L199.947 9.3C199.925 9.364 199.893 9.41467 199.851 9.452C199.808 9.484 199.749 9.5 199.675 9.5H199.363ZM206.219 9.58C205.67 9.58 205.233 9.412 204.907 9.076C204.582 8.73467 204.403 8.27067 204.371 7.684C204.366 7.61467 204.363 7.52667 204.363 7.42C204.363 7.308 204.366 7.21733 204.371 7.148C204.393 6.76933 204.481 6.43867 204.635 6.156C204.79 5.868 205.001 5.64667 205.267 5.492C205.539 5.33733 205.857 5.26 206.219 5.26C206.625 5.26 206.963 5.34533 207.235 5.516C207.513 5.68667 207.723 5.92933 207.867 6.244C208.011 6.55867 208.083 6.92667 208.083 7.348V7.484C208.083 7.54267 208.065 7.588 208.027 7.62C207.995 7.652 207.953 7.668 207.899 7.668H205.131C205.131 7.67333 205.131 7.684 205.131 7.7C205.131 7.716 205.131 7.72933 205.131 7.74C205.142 7.95867 205.19 8.164 205.275 8.356C205.361 8.54267 205.483 8.69467 205.643 8.812C205.803 8.92933 205.995 8.988 206.219 8.988C206.411 8.988 206.571 8.95867 206.699 8.9C206.827 8.84133 206.931 8.77733 207.011 8.708C207.091 8.63333 207.145 8.57733 207.171 8.54C207.219 8.47067 207.257 8.43067 207.283 8.42C207.31 8.404 207.353 8.396 207.411 8.396H207.795C207.849 8.396 207.891 8.412 207.923 8.444C207.961 8.47067 207.977 8.51067 207.971 8.564C207.966 8.644 207.923 8.74267 207.843 8.86C207.763 8.972 207.649 9.084 207.499 9.196C207.35 9.308 207.169 9.40133 206.955 9.476C206.742 9.54533 206.497 9.58 206.219 9.58ZM205.131 7.116H207.323V7.092C207.323 6.852 207.278 6.63867 207.187 6.452C207.102 6.26533 206.977 6.11867 206.811 6.012C206.646 5.9 206.449 5.844 206.219 5.844C205.99 5.844 205.793 5.9 205.627 6.012C205.467 6.11867 205.345 6.26533 205.259 6.452C205.174 6.63867 205.131 6.852 205.131 7.092V7.116ZM209.224 9.5C209.17 9.5 209.125 9.484 209.088 9.452C209.056 9.41467 209.04 9.36933 209.04 9.316V5.532C209.04 5.47867 209.056 5.43333 209.088 5.396C209.125 5.35867 209.17 5.34 209.224 5.34H209.592C209.645 5.34 209.69 5.35867 209.728 5.396C209.765 5.43333 209.784 5.47867 209.784 5.532V5.884C209.89 5.70267 210.037 5.56667 210.224 5.476C210.41 5.38533 210.634 5.34 210.896 5.34H211.216C211.269 5.34 211.312 5.35867 211.344 5.396C211.376 5.428 211.392 5.47067 211.392 5.524V5.852C211.392 5.90533 211.376 5.948 211.344 5.98C211.312 6.012 211.269 6.028 211.216 6.028H210.736C210.448 6.028 210.221 6.11333 210.056 6.284C209.89 6.44933 209.808 6.676 209.808 6.964V9.316C209.808 9.36933 209.789 9.41467 209.752 9.452C209.714 9.484 209.669 9.5 209.616 9.5H209.224ZM213.657 9.58C213.107 9.58 212.67 9.412 212.345 9.076C212.019 8.73467 211.841 8.27067 211.809 7.684C211.803 7.61467 211.801 7.52667 211.801 7.42C211.801 7.308 211.803 7.21733 211.809 7.148C211.83 6.76933 211.918 6.43867 212.073 6.156C212.227 5.868 212.438 5.64667 212.705 5.492C212.977 5.33733 213.294 5.26 213.657 5.26C214.062 5.26 214.401 5.34533 214.673 5.516C214.95 5.68667 215.161 5.92933 215.305 6.244C215.449 6.55867 215.521 6.92667 215.521 7.348V7.484C215.521 7.54267 215.502 7.588 215.465 7.62C215.433 7.652 215.39 7.668 215.337 7.668H212.569C212.569 7.67333 212.569 7.684 212.569 7.7C212.569 7.716 212.569 7.72933 212.569 7.74C212.579 7.95867 212.627 8.164 212.713 8.356C212.798 8.54267 212.921 8.69467 213.081 8.812C213.241 8.92933 213.433 8.988 213.657 8.988C213.849 8.988 214.009 8.95867 214.137 8.9C214.265 8.84133 214.369 8.77733 214.449 8.708C214.529 8.63333 214.582 8.57733 214.609 8.54C214.657 8.47067 214.694 8.43067 214.721 8.42C214.747 8.404 214.79 8.396 214.849 8.396H215.233C215.286 8.396 215.329 8.412 215.361 8.444C215.398 8.47067 215.414 8.51067 215.409 8.564C215.403 8.644 215.361 8.74267 215.281 8.86C215.201 8.972 215.086 9.084 214.937 9.196C214.787 9.308 214.606 9.40133 214.393 9.476C214.179 9.54533 213.934 9.58 213.657 9.58ZM212.569 7.116H214.761V7.092C214.761 6.852 214.715 6.63867 214.625 6.452C214.539 6.26533 214.414 6.11867 214.249 6.012C214.083 5.9 213.886 5.844 213.657 5.844C213.427 5.844 213.23 5.9 213.065 6.012C212.905 6.11867 212.782 6.26533 212.697 6.452C212.611 6.63867 212.569 6.852 212.569 7.092V7.116ZM217.997 9.58C217.704 9.58 217.451 9.52933 217.237 9.428C217.024 9.32133 216.848 9.18 216.709 9.004C216.576 8.82267 216.475 8.61733 216.405 8.388C216.341 8.15867 216.304 7.916 216.293 7.66C216.288 7.57467 216.285 7.49467 216.285 7.42C216.285 7.34533 216.288 7.26533 216.293 7.18C216.304 6.92933 216.341 6.68933 216.405 6.46C216.475 6.23067 216.576 6.02533 216.709 5.844C216.848 5.66267 217.024 5.52133 217.237 5.42C217.451 5.31333 217.704 5.26 217.997 5.26C218.312 5.26 218.573 5.316 218.781 5.428C218.989 5.54 219.16 5.67867 219.293 5.844V4.004C219.293 3.95067 219.309 3.908 219.341 3.876C219.379 3.83867 219.424 3.82 219.477 3.82H219.861C219.915 3.82 219.957 3.83867 219.989 3.876C220.027 3.908 220.045 3.95067 220.045 4.004V9.316C220.045 9.36933 220.027 9.41467 219.989 9.452C219.957 9.484 219.915 9.5 219.861 9.5H219.501C219.443 9.5 219.397 9.484 219.365 9.452C219.333 9.41467 219.317 9.36933 219.317 9.316V8.98C219.184 9.15067 219.011 9.29467 218.797 9.412C218.584 9.524 218.317 9.58 217.997 9.58ZM218.165 8.932C218.432 8.932 218.645 8.87067 218.805 8.748C218.965 8.62533 219.085 8.47067 219.165 8.284C219.245 8.092 219.288 7.89733 219.293 7.7C219.299 7.61467 219.301 7.51333 219.301 7.396C219.301 7.27333 219.299 7.16933 219.293 7.084C219.288 6.89733 219.243 6.71333 219.157 6.532C219.077 6.35067 218.955 6.20133 218.789 6.084C218.629 5.96667 218.421 5.908 218.165 5.908C217.893 5.908 217.677 5.96933 217.517 6.092C217.357 6.20933 217.243 6.36667 217.173 6.564C217.104 6.756 217.064 6.964 217.053 7.188C217.048 7.34267 217.048 7.49733 217.053 7.652C217.064 7.876 217.104 8.08667 217.173 8.284C217.243 8.476 217.357 8.63333 217.517 8.756C217.677 8.87333 217.893 8.932 218.165 8.932ZM225.252 9.58C224.932 9.58 224.665 9.524 224.452 9.412C224.239 9.29467 224.068 9.15067 223.94 8.98V9.316C223.94 9.36933 223.921 9.41467 223.884 9.452C223.852 9.484 223.809 9.5 223.756 9.5H223.388C223.335 9.5 223.289 9.484 223.252 9.452C223.22 9.41467 223.204 9.36933 223.204 9.316V4.004C223.204 3.95067 223.22 3.908 223.252 3.876C223.289 3.83867 223.335 3.82 223.388 3.82H223.772C223.831 3.82 223.876 3.83867 223.908 3.876C223.94 3.908 223.956 3.95067 223.956 4.004V5.844C224.089 5.67867 224.26 5.54 224.468 5.428C224.681 5.316 224.943 5.26 225.252 5.26C225.551 5.26 225.804 5.31333 226.012 5.42C226.225 5.52133 226.399 5.66267 226.532 5.844C226.671 6.02533 226.775 6.23067 226.844 6.46C226.913 6.68933 226.951 6.92933 226.956 7.18C226.961 7.26533 226.964 7.34533 226.964 7.42C226.964 7.49467 226.961 7.57467 226.956 7.66C226.951 7.916 226.913 8.15867 226.844 8.388C226.775 8.61733 226.671 8.82267 226.532 9.004C226.399 9.18 226.225 9.32133 226.012 9.428C225.804 9.52933 225.551 9.58 225.252 9.58ZM225.084 8.932C225.361 8.932 225.577 8.87333 225.732 8.756C225.892 8.63333 226.007 8.476 226.076 8.284C226.145 8.08667 226.185 7.876 226.196 7.652C226.201 7.49733 226.201 7.34267 226.196 7.188C226.185 6.964 226.145 6.756 226.076 6.564C226.007 6.36667 225.892 6.20933 225.732 6.092C225.577 5.96933 225.361 5.908 225.084 5.908C224.833 5.908 224.625 5.96667 224.46 6.084C224.295 6.20133 224.169 6.35067 224.084 6.532C224.004 6.71333 223.961 6.89733 223.956 7.084C223.951 7.16933 223.948 7.27333 223.948 7.396C223.948 7.51333 223.951 7.61467 223.956 7.7C223.967 7.89733 224.009 8.092 224.084 8.284C224.164 8.47067 224.284 8.62533 224.444 8.748C224.609 8.87067 224.823 8.932 225.084 8.932ZM228.526 11.02C228.483 11.02 228.446 11.004 228.414 10.972C228.382 10.94 228.366 10.9027 228.366 10.86C228.366 10.8387 228.368 10.8173 228.374 10.796C228.379 10.7747 228.39 10.748 228.406 10.716L229.022 9.252L227.494 5.644C227.467 5.58 227.454 5.53467 227.454 5.508C227.454 5.46 227.47 5.42 227.502 5.388C227.534 5.356 227.574 5.34 227.622 5.34H228.014C228.067 5.34 228.11 5.35333 228.142 5.38C228.174 5.40667 228.195 5.43867 228.206 5.476L229.422 8.388L230.67 5.476C230.686 5.43867 230.707 5.40667 230.734 5.38C230.766 5.35333 230.811 5.34 230.87 5.34H231.246C231.294 5.34 231.334 5.356 231.366 5.388C231.398 5.42 231.414 5.45733 231.414 5.5C231.414 5.52667 231.4 5.57467 231.374 5.644L229.102 10.884C229.086 10.9213 229.062 10.9533 229.03 10.98C229.003 11.0067 228.96 11.02 228.902 11.02H228.526Z" fill="#111322"/>
<g clip-path="url(#clip1_6108_46278)">
<path d="M200.259 15.4966C200.259 16.6997 199.287 17.675 198.089 17.675C196.89 17.675 195.918 16.6997 195.918 15.4966C195.918 14.2934 196.89 13.3181 198.089 13.3181C199.287 13.3181 200.259 14.2934 200.259 15.4966Z" fill="#7F56D9"/>
<path d="M191.143 23.1211C191.143 23.9633 190.463 24.646 189.623 24.646C188.784 24.646 188.104 23.9633 188.104 23.1211C188.104 22.279 188.784 21.5962 189.623 21.5962C190.463 21.5962 191.143 22.279 191.143 23.1211Z" fill="#1F1F1F"/>
<path d="M205.572 24.157C205.572 24.9992 204.892 25.6819 204.053 25.6819C203.214 25.6819 202.534 24.9992 202.534 24.157C202.534 23.3148 203.214 22.6321 204.053 22.6321C204.892 22.6321 205.572 23.3148 205.572 24.157Z" fill="#1F1F1F"/>
<path d="M199.104 23.1849C199.104 24.027 198.424 24.7098 197.585 24.7098C196.746 24.7098 196.065 24.027 196.065 23.1849C196.065 22.3427 196.746 21.6599 197.585 21.6599C198.424 21.6599 199.104 22.3427 199.104 23.1849Z" fill="#1F1F1F"/>
<path d="M195.484 19.6359C195.484 20.7187 194.61 21.5965 193.531 21.5965C192.452 21.5965 191.577 20.7187 191.577 19.6359C191.577 18.5531 192.452 17.6753 193.531 17.6753C194.61 17.6753 195.484 18.5531 195.484 19.6359Z" fill="#1F1F1F"/>
<path d="M202.958 20.1249C202.958 21.2078 202.083 22.0855 201.004 22.0855C199.925 22.0855 199.051 21.2078 199.051 20.1249C199.051 19.0421 199.925 18.1643 201.004 18.1643C202.083 18.1643 202.958 19.0421 202.958 20.1249Z" fill="#1F1F1F"/>
<path d="M216.15 13.9641C216.516 13.9641 216.84 14.0397 217.124 14.191C217.414 14.3365 217.64 14.5634 217.803 14.8717C217.971 15.1801 218.055 15.5786 218.055 16.0674V18.7728H216.403V16.3379C216.403 16.0005 216.339 15.7561 216.211 15.6048C216.084 15.4477 215.91 15.3692 215.689 15.3692C215.533 15.3692 215.391 15.407 215.263 15.4826C215.136 15.5583 215.037 15.6746 214.968 15.8317C214.898 15.983 214.863 16.1808 214.863 16.4252V18.7728H213.211V16.3379C213.211 16.0005 213.147 15.7561 213.02 15.6048C212.898 15.4477 212.724 15.3692 212.498 15.3692C212.336 15.3692 212.191 15.407 212.063 15.4826C211.942 15.5583 211.843 15.6746 211.768 15.8317C211.698 15.983 211.663 16.1808 211.663 16.4252V18.7728H210.011V14.0426H211.585V15.3605L211.272 14.9852C211.446 14.6477 211.684 14.3946 211.985 14.2259C212.287 14.0514 212.623 13.9641 212.994 13.9641C213.417 13.9641 213.788 14.0746 214.107 14.2957C214.432 14.511 214.649 14.8485 214.759 15.3081L214.22 15.1946C214.388 14.8106 214.64 14.511 214.976 14.2957C215.318 14.0746 215.71 13.9641 216.15 13.9641ZM218.837 18.7728V14.0426H220.489V18.7728H218.837ZM219.663 13.519C219.361 13.519 219.118 13.4346 218.932 13.2659C218.747 13.0972 218.654 12.8877 218.654 12.6376C218.654 12.3874 218.747 12.1779 218.932 12.0092C219.118 11.8405 219.361 11.7561 219.663 11.7561C219.964 11.7561 220.208 11.8376 220.393 12.0005C220.579 12.1576 220.671 12.3612 220.671 12.6114C220.671 12.8732 220.579 13.0914 220.393 13.2659C220.213 13.4346 219.97 13.519 219.663 13.519ZM224.371 13.9641C224.737 13.9641 225.067 14.0397 225.363 14.191C225.658 14.3365 225.89 14.5634 226.058 14.8717C226.232 15.1801 226.319 15.5786 226.319 16.0674V18.7728H224.667V16.3379C224.667 16.0005 224.597 15.7561 224.458 15.6048C224.325 15.4477 224.136 15.3692 223.893 15.3692C223.719 15.3692 223.56 15.4099 223.415 15.4914C223.27 15.567 223.157 15.6863 223.076 15.8492C222.994 16.0121 222.954 16.2245 222.954 16.4863V18.7728H221.302V14.0426H222.876V15.3866L222.571 14.9939C222.751 14.6506 222.997 14.3946 223.31 14.2259C223.623 14.0514 223.977 13.9641 224.371 13.9641Z" fill="#7F56D9"/>
<path d="M212.116 26.8513C211.513 26.8513 211.043 26.7029 210.707 26.4062C210.371 26.1037 210.203 25.6498 210.203 25.0448V20.9866H211.855V25.0273C211.855 25.196 211.901 25.3298 211.994 25.4288C212.087 25.5218 212.205 25.5684 212.35 25.5684C212.548 25.5684 212.716 25.5189 212.855 25.42L213.263 26.5808C213.124 26.6738 212.953 26.7408 212.75 26.7815C212.548 26.828 212.336 26.8513 212.116 26.8513ZM209.516 23.4564V22.2171H212.933V23.4564H209.516ZM215.869 26.8513C215.353 26.8513 214.895 26.7466 214.495 26.5371C214.095 26.3277 213.779 26.0397 213.547 25.6731C213.321 25.3008 213.208 24.876 213.208 24.3989C213.208 23.9218 213.321 23.5 213.547 23.1335C213.779 22.7669 214.095 22.4818 214.495 22.2782C214.895 22.0688 215.353 21.964 215.869 21.964C216.385 21.964 216.843 22.0688 217.243 22.2782C217.649 22.4818 217.965 22.7669 218.191 23.1335C218.417 23.5 218.53 23.9218 218.53 24.3989C218.53 24.876 218.417 25.3008 218.191 25.6731C217.965 26.0397 217.649 26.3277 217.243 26.5371C216.843 26.7466 216.385 26.8513 215.869 26.8513ZM215.869 25.5335C216.06 25.5335 216.228 25.4898 216.373 25.4026C216.524 25.3153 216.643 25.1873 216.73 25.0186C216.817 24.844 216.86 24.6375 216.86 24.3989C216.86 24.1604 216.817 23.9597 216.73 23.7968C216.643 23.628 216.524 23.5 216.373 23.4128C216.228 23.3255 216.06 23.2818 215.869 23.2818C215.684 23.2818 215.515 23.3255 215.365 23.4128C215.22 23.5 215.101 23.628 215.008 23.7968C214.921 23.9597 214.878 24.1604 214.878 24.3989C214.878 24.6375 214.921 24.844 215.008 25.0186C215.101 25.1873 215.22 25.3153 215.365 25.4026C215.515 25.4898 215.684 25.5335 215.869 25.5335ZM225.174 21.964C225.539 21.964 225.863 22.0397 226.148 22.1909C226.437 22.3364 226.663 22.5633 226.826 22.8717C226.994 23.18 227.078 23.5786 227.078 24.0673V26.7728H225.426V24.3378C225.426 24.0004 225.362 23.756 225.234 23.6048C225.107 23.4477 224.933 23.3691 224.713 23.3691C224.556 23.3691 224.414 23.4069 224.287 23.4826C224.159 23.5582 224.06 23.6746 223.991 23.8317C223.921 23.9829 223.887 24.1808 223.887 24.4251V26.7728H222.234V24.3378C222.234 24.0004 222.171 23.756 222.043 23.6048C221.921 23.4477 221.747 23.3691 221.521 23.3691C221.359 23.3691 221.214 23.4069 221.087 23.4826C220.965 23.5582 220.866 23.6746 220.791 23.8317C220.721 23.9829 220.687 24.1808 220.687 24.4251V26.7728H219.034V22.0426H220.608V23.3604L220.295 22.9851C220.469 22.6477 220.707 22.3946 221.008 22.2258C221.31 22.0513 221.646 21.964 222.017 21.964C222.44 21.964 222.811 22.0746 223.13 22.2957C223.455 22.5109 223.672 22.8484 223.782 23.308L223.243 23.1946C223.411 22.8106 223.663 22.5109 224 22.2957C224.342 22.0746 224.733 21.964 225.174 21.964ZM229.964 26.8513C229.361 26.8513 228.892 26.7029 228.555 26.4062C228.219 26.1037 228.051 25.6498 228.051 25.0448V20.9866H229.703V25.0273C229.703 25.196 229.75 25.3298 229.842 25.4288C229.935 25.5218 230.054 25.5684 230.199 25.5684C230.396 25.5684 230.564 25.5189 230.703 25.42L231.112 26.5808C230.973 26.6738 230.802 26.7408 230.599 26.7815C230.396 26.828 230.184 26.8513 229.964 26.8513ZM227.364 23.4564V22.2171H230.782V23.4564H227.364Z" fill="black"/>
</g>
<defs>
<clipPath id="clip0_6108_46278">
<rect width="176.104" height="30" fill="white"/>
</clipPath>
<clipPath id="clip1_6108_46278">
<rect width="50" height="16" fill="white" transform="translate(188.104 11.5)"/>
</clipPath>
</defs>
</svg>
