<svg width="175" height="23" viewBox="0 0 175 23" fill="none" xmlns="http://www.w3.org/2000/svg">
<mask id="mask0_210_8181" style="mask-type:luminance" maskUnits="userSpaceOnUse" x="0" y="0" width="175" height="23">
<path d="M174.516 0.860352H0.578613V22.1588H174.516V0.860352Z" fill="white"/>
</mask>
<g mask="url(#mask0_210_8181)">
<path d="M11.2098 13.8107H11.1542L7.32816 1.20312H0.703491V21.5061H5.39969V8.60844H5.45832L9.66083 21.5061H12.5581L16.736 8.57758H16.7916V21.5061H21.4908V1.20312H14.9495L11.2098 13.8107Z" fill="white"/>
<path d="M25.5704 1.2002H40.523V5.33174H30.6708V9.2041H38.0484V13.3078H30.6708V17.3499H40.5816V21.497H25.5704V1.2002Z" fill="white"/>
<path d="M66.0935 5.27312H60.342V1.2002H76.9454V5.27312H71.194V21.497H66.0935V5.27312Z" fill="white"/>
<path d="M79.37 1.2002H94.3256V5.33174H84.4704V9.2041H91.8479V13.3078H84.4704V17.3499H94.3812V21.497H79.37V1.2002Z" fill="white"/>
<path d="M98.1483 1.2002H107.035C111.648 1.2002 114.298 4.19009 114.298 7.94828C114.298 10.4167 113.101 13.1938 110.481 14.2736L115.11 21.5093H109.556L105.554 15.0173H103.246V21.4969H98.1483V1.2002ZM106.377 11.256C108.229 11.256 109.34 9.85823 109.34 8.20438C109.34 6.46722 108.201 5.18981 106.377 5.18981H103.246V11.256H106.377Z" fill="white"/>
<path d="M117.726 1.2002H122.814V9.05599H129.424V1.2002H134.539V21.497H129.432V13.4746H122.814V21.497H117.726V1.2002Z" fill="white"/>
<path d="M138.214 14.3045V1.2002H143.284V13.962C143.284 16.2391 144.482 17.6647 146.762 17.6647C148.896 17.6647 150.121 16.3842 150.121 13.962V1.2002H155.105V14.0916C155.105 19.1611 151.347 21.8394 146.589 21.8394C141.433 21.8517 138.214 19.4018 138.214 14.3045Z" fill="white"/>
<path d="M168.725 9.49063L165.821 8.71924C164.278 8.3212 163.044 7.92316 163.044 6.75375C163.044 5.35908 164.324 4.84687 165.821 4.84687C167.364 4.84687 169.001 5.41153 170.011 6.60564L173.195 3.76693C171.557 2.0884 169.314 0.860352 165.821 0.860352C161.322 0.860352 158.073 3.59414 158.073 7.38319C158.073 10.657 160.125 12.2522 162.886 12.9927L166.391 13.9183C167.644 14.2609 168.669 14.7175 168.669 15.9703C168.669 17.3958 167.018 17.8802 165.478 17.8802C164.479 17.8817 163.493 17.6509 162.598 17.206C161.703 16.761 160.925 16.114 160.322 15.3161L157.104 18.1919C159.115 20.5368 162.146 21.8667 165.706 21.8667C169.894 21.8667 173.88 19.6451 173.88 15.2297C173.88 12.0516 171.631 10.2311 168.725 9.49063Z" fill="white"/>
<path d="M54.1424 9.49063L51.2296 8.71924C49.6868 8.3212 48.468 7.92316 48.468 6.75375C48.468 5.35908 49.7485 4.84687 51.2296 4.84687C52.7723 4.84687 54.4138 5.41153 55.4227 6.60564L58.604 3.76693C56.9656 2.0884 54.7255 0.860352 51.2296 0.860352C46.7308 0.860352 43.4818 3.59414 43.4818 7.38319C43.4818 10.657 45.5336 12.2522 48.2952 12.9927L51.8003 13.9183C53.0531 14.2609 54.0775 14.7175 54.0775 15.9703C54.0775 17.3958 52.4268 17.8802 50.887 17.8802C49.8881 17.882 48.9025 17.6512 48.008 17.2062C47.1137 16.7612 46.3352 16.1141 45.7342 15.3161L42.516 18.1919C44.5247 20.5368 47.5546 21.8667 51.1154 21.8667C55.3025 21.8667 59.2921 19.6451 59.2921 15.2297C59.3013 12.0516 57.0489 10.2311 54.1424 9.49063Z" fill="white"/>
</g>
</svg>
