<svg width="53" height="53" viewBox="0 0 53 53" fill="none" xmlns="http://www.w3.org/2000/svg">
<g clip-path="url(#clip0_210_8221)">
<path fill-rule="evenodd" clip-rule="evenodd" d="M52.9995 31.6684V21.2712H49.5202V14.0801C49.5202 12.7746 49.6019 12.3811 48.4957 11.7291L27.7641 0.543563C27.2107 0.217527 26.8761 0.0545089 26.5413 0.0546876C26.2065 0.0545089 25.8717 0.217527 25.3183 0.543563L4.58669 11.7291C3.48068 12.3811 3.56219 12.7746 3.56219 14.0801V21.2712H0V31.6684H3.56219V38.8644C3.56219 40.17 3.48068 40.5634 4.58669 41.2155L25.3183 52.4003C25.8715 52.7265 26.2061 52.8897 26.5408 52.8897H26.5416C26.8762 52.8897 27.2109 52.7265 27.7641 52.4003L48.4957 41.2155C49.6019 40.5634 49.5202 40.17 49.5202 38.8644V31.6684H52.9995Z" fill="white"/>
<path fill-rule="evenodd" clip-rule="evenodd" d="M1.07703 30.5855V22.4033H2.75204L3.8806 25.3412C4.08246 25.8632 4.46273 26.8951 4.66476 27.5262H4.68837C4.64097 26.8586 4.51013 25.2685 4.51013 23.7268V22.4033H6.11395V30.5855H4.43894L3.35795 27.8297C3.10834 27.1984 2.74014 26.1182 2.59758 25.5112H2.5738C2.60965 26.2153 2.68067 27.5749 2.68067 29.1775V30.5855H1.07703Z" fill="#1D2939"/>
<path fill-rule="evenodd" clip-rule="evenodd" d="M9.32606 30.682C7.30646 30.682 6.66504 28.4968 6.66504 26.4696C6.66504 24.4422 7.4966 22.3057 9.43293 22.3057C11.607 22.3057 12.0347 24.7579 12.0347 26.3118C12.0347 29.4075 10.9416 30.682 9.33795 30.682H9.32606ZM9.37364 29.0554C9.8725 29.0554 10.11 28.0842 10.11 26.409C10.11 25.0006 9.92008 23.9323 9.36174 23.9323C8.82702 23.9323 8.55397 25.0006 8.56587 26.4453C8.54208 28.0842 8.82702 29.0554 9.36174 29.0554H9.37364Z" fill="#1D2939"/>
<path fill-rule="evenodd" clip-rule="evenodd" d="M12.6163 22.524C13.1509 22.427 13.828 22.3662 14.4813 22.3662C15.3604 22.3662 16.2039 22.4756 16.7624 22.9854C17.2849 23.4587 17.4274 24.0051 17.4274 24.7334C17.4274 25.5347 17.0354 26.3603 16.2158 26.7486V26.7731C16.7384 27.0158 16.9999 27.5013 17.1423 28.3026C17.2849 29.1159 17.5226 30.2694 17.677 30.5849H15.7524C15.6574 30.3663 15.4673 29.5165 15.3604 28.6546C15.2417 27.6834 15.0277 27.4528 14.6239 27.4528H14.4458V30.5849H12.6163V22.524ZM14.4458 26.0082H14.6833C15.2774 26.0082 15.5742 25.4863 15.5742 24.8914C15.5742 24.2963 15.3485 23.8473 14.7783 23.823C14.6595 23.823 14.5172 23.8352 14.4458 23.8714V26.0082Z" fill="#1D2939"/>
<path fill-rule="evenodd" clip-rule="evenodd" d="M18.5107 22.524C18.9146 22.4391 19.5562 22.3662 20.245 22.3662C21.326 22.3662 22.0745 22.6211 22.6211 23.1432C23.3337 23.8109 23.6426 24.9034 23.6426 26.4331C23.6426 27.9989 23.2388 29.2373 22.4667 29.9049C21.9083 30.4027 21.1123 30.6576 19.9125 30.6576C19.3661 30.6576 18.8315 30.597 18.5107 30.5605V22.524ZM20.3402 29.1038C20.3997 29.1279 20.5066 29.1279 20.5896 29.1279C21.2312 29.1279 21.742 28.3754 21.742 26.3482C21.742 24.8306 21.3974 23.8593 20.6015 23.8593C20.5066 23.8593 20.4233 23.8593 20.3402 23.8958V29.1038Z" fill="#1D2939"/>
<path fill-rule="evenodd" clip-rule="evenodd" d="M24.4771 22.524C24.988 22.415 25.6889 22.3662 26.4372 22.3662C27.1856 22.3662 27.9696 22.4391 28.5755 22.9489C29.0389 23.3375 29.217 23.9079 29.217 24.4785C29.217 25.1583 28.8843 25.8745 28.0886 26.2509V26.2994C29.0151 26.5788 29.4783 27.3678 29.4783 28.1932C29.4783 28.873 29.2645 29.3953 28.8843 29.7957C28.3973 30.33 27.5538 30.6576 26.0333 30.6576C25.4393 30.6576 24.8809 30.6211 24.4771 30.5605V22.524ZM26.3065 25.7168H26.6035C27.0907 25.7168 27.4232 25.2798 27.4232 24.6971C27.4232 24.163 27.1738 23.7503 26.6866 23.7503C26.5322 23.7503 26.4015 23.7624 26.3065 23.7987V25.7168ZM26.3065 29.201C26.4015 29.2253 26.4967 29.2253 26.6035 29.2253C27.1026 29.2253 27.5776 28.8973 27.5776 28.1691C27.5776 27.4771 27.1262 27.1007 26.6154 27.1007H26.3065V29.201Z" fill="#1D2939"/>
<path fill-rule="evenodd" clip-rule="evenodd" d="M32.602 30.682C30.5826 30.682 29.9412 28.4968 29.9412 26.4696C29.9412 24.4422 30.7727 22.3057 32.7091 22.3057C34.8829 22.3057 35.3106 24.7579 35.3106 26.3118C35.3106 29.4075 34.2177 30.682 32.6139 30.682H32.602ZM32.6494 29.0554C33.1486 29.0554 33.3862 28.0842 33.3862 26.409C33.3862 25.0006 33.196 23.9323 32.6377 23.9323C32.1031 23.9323 31.8297 25.0006 31.8418 26.4453C31.8179 28.0842 32.1031 29.0554 32.6377 29.0554H32.6494Z" fill="#1D2939"/>
<path fill-rule="evenodd" clip-rule="evenodd" d="M37.9822 22.4023V25.583H39.3364V22.4023H41.1778V30.5845H39.3364V27.3311H37.9822V30.5845H36.1409V22.4023H37.9822Z" fill="#1D2939"/>
<path fill-rule="evenodd" clip-rule="evenodd" d="M43.9983 22.4023V27.647C43.9983 28.7272 44.2836 29.0428 44.6161 29.0428C44.9607 29.0428 45.2339 28.8001 45.2339 27.647V22.4023H47.0753V27.3068C47.0753 29.4071 46.4212 30.6816 44.7224 30.6816C42.6224 30.6816 42.1571 29.3342 42.1571 27.2827V22.4023H43.9983Z" fill="#1D2939"/>
<path fill-rule="evenodd" clip-rule="evenodd" d="M47.9177 28.7155C48.2623 28.9098 48.8442 29.0313 49.3078 29.0313C49.9968 29.0313 50.3055 28.7155 50.3055 28.3029C50.3055 27.793 49.973 27.5624 49.2719 27.1373C47.977 26.3485 47.7632 25.4499 47.7632 24.8431C47.7632 23.4953 48.6186 22.3301 50.4718 22.3301C51.0184 22.3301 51.5409 22.4759 51.7904 22.6214L51.529 24.2361C51.2915 24.0904 50.9469 23.957 50.4837 23.957C49.8659 23.957 49.5691 24.2847 49.5691 24.6609C49.5691 25.0129 49.7354 25.2438 50.6382 25.7656C51.743 26.397 52.1112 27.2589 52.1112 28.0967C52.1112 29.6384 50.7935 30.6579 49.107 30.6579C48.4178 30.6579 47.8706 30.5003 47.5857 30.3423L47.9177 28.7155Z" fill="#1D2939"/>
<path fill-rule="evenodd" clip-rule="evenodd" d="M10.6784 17.9176C10.6784 17.0164 10.6221 16.7447 11.3858 16.2946L25.697 8.57303C26.079 8.34799 26.3101 8.23537 26.5412 8.23555C26.7724 8.23537 27.0033 8.34799 27.3855 8.57303L41.6967 16.2946C42.4604 16.7447 42.4041 17.0164 42.4041 17.9176V21.2709H48.5729V14.5909C48.5729 13.339 48.6511 12.9618 47.5905 12.3367L27.7138 1.61241C27.1831 1.29978 26.8621 1.14338 26.5412 1.14355C26.2202 1.14338 25.8994 1.29978 25.3687 1.61241L5.49193 12.3367C4.4314 12.9618 4.50959 13.339 4.50959 14.5909V21.2709H10.6784V17.9176Z" fill="#1D2939"/>
<path fill-rule="evenodd" clip-rule="evenodd" d="M42.4039 31.668V35.0263C42.4039 35.9275 42.4603 36.1992 41.6966 36.6493L27.3854 44.3703C27.0035 44.5955 26.7724 44.7082 26.5416 44.7082H26.5409C26.3098 44.7082 26.0789 44.5955 25.6969 44.3703L11.3857 36.6493C10.622 36.1992 10.6783 35.9275 10.6783 35.0263V31.668H4.50947V38.353C4.50947 39.6049 4.43128 39.9821 5.49181 40.6073L25.3686 51.3309C25.8991 51.6438 26.2199 51.8002 26.5407 51.8002H26.5416C26.8624 51.8002 27.1833 51.6438 27.7137 51.3309L47.5904 40.6073C48.651 39.9821 48.5728 39.6049 48.5728 38.353V31.668H42.4039Z" fill="#1D2939"/>
<path fill-rule="evenodd" clip-rule="evenodd" d="M39.8781 17.5158L27.2842 10.7209C26.9478 10.5229 26.7445 10.4238 26.5411 10.4238C26.3379 10.4238 26.1346 10.5229 25.7982 10.7209L13.2044 17.5158C12.5323 17.9119 12.582 18.1509 12.582 18.944V21.271H40.5004V18.944C40.5004 18.1509 40.5501 17.9119 39.8781 17.5158Z" fill="#1D2939"/>
<path fill-rule="evenodd" clip-rule="evenodd" d="M12.582 33.9997C12.582 34.7928 12.5325 35.0318 13.2043 35.4279L25.7984 42.2225C26.1344 42.4207 26.3377 42.5199 26.5409 42.5199H26.5416C26.7449 42.5199 26.9481 42.4207 27.2842 42.2225L39.878 35.4279C40.5501 35.0318 40.5006 34.7928 40.5006 33.9997V31.668H12.582V33.9997Z" fill="#1D2939"/>
</g>
<defs>
<clipPath id="clip0_210_8221">
<rect width="53" height="53" fill="white" transform="translate(0 0.00976562)"/>
</clipPath>
</defs>
</svg>
