<svg width="168" height="39" viewBox="0 0 168 39" fill="none" xmlns="http://www.w3.org/2000/svg">
<g clip-path="url(#clip0_242_13468)">
<path d="M61.0792 7.61914C64.0025 7.61914 66.6121 9.00632 67.2399 11.9967L65.0145 12.3183C64.4851 10.2687 62.6252 9.64953 60.9854 9.64953C59.7299 9.64953 57.528 10.1679 57.528 12.0495C57.528 13.4895 58.6664 14.1519 60.1843 14.4974L62.0583 14.9198C64.5413 15.4863 67.5116 16.3599 67.5116 19.7198C67.5116 22.9838 64.5694 24.6398 61.3321 24.6398C57.4905 24.6398 55.0778 22.4894 54.6421 19.3598L56.8627 19.0382C57.2984 21.3182 58.7976 22.6046 61.379 22.6046C63.7684 22.6046 65.1691 21.563 65.1691 19.9311C65.1691 18.1742 63.698 17.531 61.6695 17.0511L59.6409 16.6046C57.4203 16.1247 55.1714 14.9007 55.1714 12.1024C55.1855 8.95353 58.4462 7.61914 61.0792 7.61914Z" fill="white"/>
<path d="M69.5965 28.6242V26.7953H70.4444C71.7702 26.7953 72.3747 26.6465 72.979 24.5922L73.0539 24.3426L68.7063 12.2227H70.9738L74.0425 21.525L77.0361 12.2227H79.163L74.8623 24.8657C74.019 27.3378 73.3397 28.6242 70.6459 28.6242H69.5965Z" fill="white"/>
<path d="M87.7408 15.7112C87.427 14.3 86.2932 13.7912 84.794 13.7912C83.515 13.7912 82.2595 14.2713 82.2595 15.2744C82.2595 16.2344 82.9622 16.6088 84.2178 16.8824L85.6232 17.18C87.8439 17.66 89.9193 18.4664 89.9193 20.8663C89.9193 23.2663 87.7689 24.6487 84.9954 24.6487C81.8284 24.6487 80.0904 22.6232 79.8749 20.7175L82.0253 20.5207C82.3391 21.9608 83.2574 22.8919 85.0423 22.8919C86.6867 22.8919 87.8532 22.1527 87.8532 21.0872C87.8532 20.0215 86.6446 19.4312 85.2672 19.1335L83.7352 18.8263C82.0205 18.4808 80.2075 17.7127 80.2075 15.4136C80.2075 13.2824 82.475 12.0536 85.0142 12.0536C87.6705 12.0536 89.4086 13.4601 89.8678 15.5384L87.7408 15.7112ZM93.1285 8.88086H95.1805V12.2408H97.448V13.9736H95.1805V20.9528C95.1805 22.2391 95.2507 22.5608 96.4361 22.5608H97.448V24.3415H95.9769C93.6579 24.3415 93.1285 23.8231 93.1285 21.2504V13.9544H91.2171V12.2216H93.1285V8.88086Z" fill="white"/>
<path d="M98.7122 18.3462C98.7122 14.5589 101.102 12.0391 104.461 12.0391C108.18 12.0391 110.303 15.0534 110.012 18.9653H100.886C100.886 21.3413 102.385 22.8053 104.386 22.8053C106.26 22.8053 107.197 21.9893 107.721 20.6741L109.82 20.9477C109.267 22.9541 107.407 24.658 104.437 24.658C100.572 24.6389 98.7122 21.8693 98.7122 18.3462ZM100.909 17.2086H107.838C107.838 16.7574 107.751 16.3107 107.58 15.8949C107.409 15.479 107.159 15.1021 106.845 14.7866C106.53 14.4709 106.157 14.2228 105.748 14.0568C105.338 13.8907 104.901 13.8103 104.461 13.8198C102.39 13.8054 101.008 15.063 100.909 17.1942V17.2086Z" fill="white"/>
<path d="M112.154 12.2222H114.206V13.9022C114.834 12.8125 115.921 12.0254 117.874 12.0254C119.828 12.0254 120.686 12.8653 121.257 14.1278C122.152 12.7405 123.455 12.0254 125.412 12.0254C125.932 12.0084 126.449 12.1006 126.933 12.2963C127.416 12.4919 127.855 12.7869 128.224 13.1629C128.945 13.955 129.259 15.1886 129.259 16.8974V24.342H127.216V17.4925C127.216 16.0045 127.024 15.0638 126.541 14.5453C126.294 14.3031 125.999 14.1165 125.675 13.9975C125.353 13.8785 125.009 13.8297 124.667 13.8542C122.878 13.8542 121.744 15.2654 121.744 17.8141V24.342H119.692V17.4925C119.692 16.0045 119.5 15.0638 119.017 14.5453C118.769 14.3031 118.474 14.1165 118.152 13.9975C117.828 13.8785 117.485 13.8297 117.143 13.8542C115.354 13.8542 114.22 15.2654 114.22 17.8141V24.342H112.168L112.154 12.2222Z" fill="white"/>
<path d="M134.182 13.9025C134.857 12.8418 136.056 12.0257 138.07 12.0257C139.663 12.0257 140.773 12.6402 141.401 13.6817C141.869 14.4498 142.053 15.4625 142.053 16.8977V24.3424H140V17.4688C140 16.1825 139.855 15.4145 139.565 14.8913C139.13 14.1521 138.407 13.8545 137.367 13.8545C135.385 13.8545 134.182 15.2417 134.182 17.8865V24.3424H132.125V7.91699H134.182V13.9025Z" fill="white"/>
<path d="M152.396 22.6146C151.745 23.7521 150.705 24.6161 148.682 24.6161C147.23 24.6161 146.217 24.0738 145.59 23.2049C145.008 22.413 144.765 21.2514 144.765 19.7442V12.2227H146.822V19.077C146.761 19.9532 146.892 20.8322 147.205 21.6498C147.595 22.4658 148.367 22.7874 149.426 22.7874C151.3 22.7874 152.396 21.3762 152.396 18.8274V12.2227H154.449V24.3426H152.396V22.6146Z" fill="white"/>
<path d="M164.416 15.711C164.102 14.2998 162.968 13.791 161.474 13.791C160.19 13.791 158.935 14.271 158.935 15.2742C158.935 16.2342 159.637 16.6086 160.892 16.8822L162.298 17.1797C164.519 17.6598 166.599 18.4661 166.599 20.8661C166.599 23.2661 164.449 24.6485 161.67 24.6485C158.508 24.6485 156.77 22.623 156.549 20.7173L158.7 20.5205C159.014 21.9605 159.932 22.8917 161.717 22.8917C163.362 22.8917 164.528 22.1525 164.528 21.0869C164.528 20.0213 163.319 19.431 161.946 19.1333L160.401 18.8117C158.686 18.4661 156.873 17.6982 156.873 15.399C156.873 13.2678 159.145 12.0391 161.68 12.0391C164.336 12.0391 166.074 13.4454 166.534 15.5238L164.416 15.711Z" fill="white"/>
<path d="M17.386 1.12336C18.4495 1.55055 19.8597 2.14095 20.9044 2.61614C21.9491 2.13614 23.3546 1.54575 24.4228 1.12336C23.3733 0.768158 21.9679 0.312163 20.9044 0.00976562C19.8409 0.321763 18.4307 0.758559 17.386 1.12336Z" fill="white"/>
<path d="M23.1012 5.50494C24.1693 6.17694 25.5795 7.08414 26.6196 7.79453C27.6689 7.09373 29.0698 6.17214 30.138 5.50494C29.0932 4.90976 27.6877 4.13215 26.6196 3.58496C25.5561 4.14656 24.1459 4.91455 23.1012 5.50494Z" fill="white"/>
<path d="M28.8339 10.6471C29.8974 11.5207 31.3075 12.6967 32.3523 13.6039C33.397 12.7064 34.7977 11.5159 35.8659 10.6471C34.8212 9.84555 33.4204 8.78956 32.3523 8.02637C31.284 8.79916 29.8739 9.84075 28.8339 10.6471Z" fill="white"/>
<path d="M34.5374 16.7222C35.5961 17.735 37.0063 19.0934 38.0556 20.1207C39.1098 19.0983 40.5153 17.7206 41.574 16.7222C40.5293 15.7622 39.1239 14.4375 38.0556 13.4775C36.9921 14.4375 35.5821 15.7382 34.5374 16.7222Z" fill="white"/>
<path d="M11.6652 5.50494C12.7334 6.17694 14.1435 7.08414 15.1835 7.79453C16.233 7.09373 17.6337 6.17214 18.7065 5.50494C17.6572 4.90976 16.2564 4.13215 15.1835 3.58496C14.12 4.14656 12.7099 4.91455 11.6652 5.50494Z" fill="white"/>
<path d="M17.386 10.6471C18.4495 11.5207 19.8644 12.6967 20.9044 13.6039C21.9491 12.7064 23.3546 11.5159 24.4228 10.6471C23.3781 9.84555 21.9726 8.78956 20.9044 8.02637C19.8363 8.79916 18.4261 9.84075 17.386 10.6471Z" fill="white"/>
<path d="M23.1012 16.7222C24.16 17.735 25.5701 19.0934 26.6196 20.1207C27.6737 19.0983 29.0791 17.7206 30.138 16.7222C29.0932 15.7622 27.6877 14.4375 26.6196 13.4775C25.5561 14.4375 24.1459 15.7382 23.1012 16.7222Z" fill="white"/>
<path d="M28.8339 23.1363L32.3523 26.6642L35.8659 23.1363C34.8165 22.0899 33.411 20.7028 32.3523 19.6611C31.2935 20.7028 29.8833 22.0899 28.8339 23.1363Z" fill="white"/>
<path d="M5.94995 10.6471C7.01342 11.5207 8.42827 12.6967 9.46832 13.6039C10.5131 12.7064 11.9186 11.5159 12.9867 10.6471C11.9419 9.84555 10.5646 8.80397 9.46832 8.02637C8.40485 8.79916 6.99 9.84075 5.94995 10.6471Z" fill="white"/>
<path d="M11.6652 16.7222C12.7239 17.735 14.1341 19.0934 15.1835 20.1207C16.2376 19.0983 17.6432 17.7206 18.7065 16.7222C17.6572 15.7622 16.2516 14.4375 15.1835 13.4775C14.12 14.4375 12.7099 15.7382 11.6652 16.7222Z" fill="white"/>
<path d="M17.386 23.1363L20.9044 26.6642C21.9586 25.6035 23.364 24.1923 24.4228 23.1363C23.3686 22.0899 21.9632 20.7028 20.9044 19.6611C19.8456 20.7028 18.4402 22.0899 17.386 23.1363Z" fill="white"/>
<path d="M23.1012 29.3851L26.6196 32.9322L30.138 29.3851C29.0838 28.3195 27.6784 26.8987 26.6196 25.8379L23.1012 29.3851Z" fill="white"/>
<path d="M0.258057 16.7222C1.31685 17.735 2.72701 19.0934 3.77644 20.1207C4.82585 19.0983 6.23132 17.7206 7.2948 16.7222C6.24539 15.7622 4.84459 14.4375 3.77644 13.4775C2.71296 14.4375 1.30279 15.7382 0.258057 16.7222Z" fill="white"/>
<path d="M5.94995 23.1363C7.00874 24.1923 8.41421 25.6035 9.46832 26.6642L12.9867 23.1363C11.9326 22.0899 10.5271 20.7028 9.46832 19.6611C8.40953 20.7028 7.00406 22.0899 5.94995 23.1363Z" fill="white"/>
<path d="M11.6652 29.3851L15.1835 32.9322L18.7065 29.3851C17.6478 28.3195 16.2423 26.8987 15.1835 25.8379L11.6652 29.3851Z" fill="white"/>
<path d="M17.386 35.3766C18.4402 36.4134 19.8456 37.7767 20.9044 38.8279C21.9632 37.7958 23.3686 36.4279 24.4228 35.3766C23.364 34.3207 21.9586 32.9143 20.9044 31.8535C19.8503 32.9143 18.4448 34.3207 17.386 35.3766Z" fill="white"/>
</g>
<defs>
<clipPath id="clip0_242_13468">
<rect width="167" height="39" fill="white" transform="translate(0.258057 0.00976562)"/>
</clipPath>
</defs>
</svg>
