<svg width="263" height="26" viewBox="0 0 263 26" fill="none" xmlns="http://www.w3.org/2000/svg">
<g clip-path="url(#clip0_4944_21751)">
<rect width="25" height="25" transform="translate(0 0.5)" fill="black"/>
<path d="M17.3669 17.9242L13.2289 13.7862L17.9781 9.03703L22.6191 13.678V23.1191H2.38095V19.2357L8.84264 12.774L15.6799 19.6113L17.3606 17.9306L17.3669 17.9242ZM2.38095 2.88095H22.6191V10.3103L17.9781 5.66934L11.5419 12.1056L8.84264 9.40627L2.38095 15.868V2.88095ZM0 25.5H25V0.5H0V25.5Z" fill="white"/>
</g>
<g clip-path="url(#clip1_4944_21751)">
<path d="M128.069 19.4867H124.462C124.462 17.4892 124.475 15.5452 124.456 13.6011C124.456 13.0801 124.41 12.5456 124.285 12.0379C124.114 11.3164 123.636 10.8555 122.882 10.7753C122.114 10.6884 121.439 10.9556 121.143 11.6838C120.887 12.3252 120.73 13.0467 120.71 13.7414C120.651 15.6253 120.69 17.5159 120.69 19.4733H117.031C117.011 19.186 116.978 18.8921 116.978 18.5981C116.978 16.8345 116.985 15.0642 116.972 13.3005C116.972 12.873 116.919 12.432 116.815 12.0178C116.624 11.2362 116.099 10.8087 115.312 10.7619C114.506 10.7152 113.81 11.0024 113.561 11.8041C113.338 12.5256 113.24 13.3139 113.22 14.0755C113.174 15.8658 113.207 17.6495 113.207 19.4933H109.547V7.90933H113.148C113.181 8.19662 113.214 8.49054 113.272 8.99826C114.237 7.83584 115.424 7.50183 116.742 7.57533C118.113 7.64882 119.176 8.2567 119.923 9.59283C121.17 7.86925 122.816 7.36153 124.771 7.64214C126.568 7.90265 127.906 8.92476 128.023 10.7419C128.207 13.6278 128.069 16.5405 128.069 19.4867Z" fill="black"/>
<path d="M134.838 9.13812C136.301 7.61497 137.849 7.32769 139.561 7.6417C141.279 7.95566 142.611 9.1448 142.689 10.9018C142.814 13.741 142.722 16.5869 142.722 19.4862H139.088C139.088 17.5889 139.095 15.7385 139.088 13.8879C139.088 13.3669 139.056 12.8391 138.977 12.318C138.833 11.3627 138.249 10.8483 137.318 10.7481C136.419 10.6479 135.638 10.9419 135.278 11.8036C135.022 12.4116 134.897 13.1064 134.884 13.7744C134.832 15.6583 134.864 17.5422 134.864 19.4862H131.172V0.520264H134.838V9.13812Z" fill="black"/>
<path d="M74.5562 0.5H78.1833V9.13121C79.5932 7.70159 81.0821 7.32746 82.7679 7.61474C84.6698 7.94207 85.9752 9.07776 86.0801 11.0084C86.2244 13.8075 86.1196 16.6267 86.1196 19.486H82.5315C82.5122 19.1653 82.486 18.8447 82.4791 18.5173C82.4529 16.6 82.4989 14.676 82.394 12.7587C82.3154 11.3491 81.5939 10.7011 80.4066 10.7011C79.3242 10.7011 78.3995 11.5162 78.3208 12.7587C78.2095 14.5491 78.2422 16.3462 78.216 18.1432C78.216 18.5708 78.216 18.9983 78.216 19.4793H74.5626V0.5H74.5562Z" fill="black"/>
<path d="M186.563 13.66C186.563 11.9899 185.33 10.7406 183.677 10.7473C182.109 10.754 180.883 12.0233 180.87 13.6533C180.863 15.3368 182.063 16.5994 183.703 16.6261C185.277 16.6462 186.556 15.3168 186.556 13.6667M186.314 8.85005C186.346 8.48259 186.366 8.20871 186.392 7.8947H190V19.4587H186.419C186.386 19.1714 186.346 18.8441 186.294 18.3497C185.1 19.7059 183.664 20.0733 182.017 19.8461C180.378 19.619 179.118 18.8107 178.167 17.4612C176.449 15.0161 176.738 11.1615 178.784 9.05712C180.732 7.05298 183.637 6.95276 186.314 8.85005Z" fill="black"/>
<path d="M159.442 7.8558C158.216 10.2073 157.062 12.4052 155.914 14.6098C154.13 18.0235 152.346 21.4306 150.588 24.851C150.346 25.332 150.07 25.519 149.539 25.499C148.45 25.4589 147.354 25.4856 146.108 25.4856C146.272 25.1316 146.377 24.8643 146.508 24.6105C147.545 22.6865 148.561 20.7492 149.631 18.8452C149.965 18.2507 149.998 17.7964 149.643 17.1751C148.057 14.3292 146.528 11.4365 144.987 8.5639C144.888 8.37688 144.81 8.18313 144.652 7.8558C146.049 7.8558 147.341 7.82239 148.627 7.88921C148.857 7.90257 149.126 8.27666 149.27 8.5439C150.214 10.3409 151.119 12.1514 152.116 14.1021C153.094 12.158 154.012 10.3677 154.878 8.55058C155.12 8.04283 155.396 7.81571 155.973 7.84244C157.062 7.89589 158.157 7.8558 159.442 7.8558Z" fill="black"/>
<path d="M36.9923 12.2711H31.9485V19.486H28V2.15015H37.3662V5.53716H31.9747V8.79057H36.9923V12.2711Z" fill="black"/>
<path d="M96.6079 12.0704C96.3131 10.7477 95.4602 10.0863 94.1878 10.1197C92.9679 10.1531 92.1282 10.8679 91.925 12.0704H96.6079ZM100.124 14.3685H91.6757C91.7875 15.5376 92.1282 16.4462 93.2304 16.8537C94.3386 17.2678 95.467 16.9539 96.2934 16.0721C96.4506 15.905 96.7394 15.7581 96.9555 15.7781C97.9198 15.8449 98.8841 15.9652 99.8483 16.0721C99.6713 18.457 96.7785 20.1806 93.4599 19.9C89.9247 19.606 87.6287 16.8737 87.9042 13.3063C88.2127 9.34479 90.8167 7.17362 94.8633 7.49427C98.2412 7.76151 100.419 10.5406 100.124 14.3685Z" fill="black"/>
<path d="M55.0879 12.0511C54.7337 10.7083 53.9007 10.0736 52.6217 10.1204C51.4346 10.1672 50.595 10.882 50.4113 12.0511H55.0879ZM58.5576 16.3132C58.0132 17.0615 57.5672 17.9166 56.9047 18.5312C54.7272 20.5554 50.1818 20.3683 48.0895 18.2573C46.3251 16.4736 45.8463 13.5542 46.8892 11.0089C47.8337 8.71752 49.7423 7.49497 52.3725 7.48829C56.4718 7.48161 58.997 10.254 58.5313 14.3692H50.2081C50.2146 15.6719 50.7393 16.5137 51.6838 16.8611C52.766 17.2552 53.9663 16.9479 54.6943 16.1596C54.8846 15.9592 55.2256 15.7788 55.488 15.7922C56.4259 15.8389 57.3573 15.9726 58.2952 16.0661C58.3805 16.1462 58.4658 16.2264 58.551 16.3066" fill="black"/>
<path d="M64.6908 0.5H61.0439V19.4726H64.6908V0.5Z" fill="black"/>
<path d="M71.3665 0.5H67.7983V19.486H71.3665V0.5Z" fill="black"/>
<path d="M170.04 11.0153C169.581 10.9551 169.234 10.9084 168.82 10.855V7.92219C169.168 7.88879 169.516 7.85538 170.008 7.80861V4.14771H173.766V7.82866H175.989V10.895H173.825V19.4661H170.04V11.0153Z" fill="black"/>
<path d="M165.353 10.9019V19.473H161.602V11.0088C161.129 10.942 160.749 10.8885 160.355 10.8351V7.90238C160.756 7.86897 161.11 7.84893 161.562 7.80884V4.16797H165.347V7.84893H167.531V10.8952H165.347L165.353 10.9019Z" fill="black"/>
<path d="M43.7603 7.88916H40.166V25.4455H43.7603V7.88916Z" fill="black"/>
<path d="M106.355 7.89575H102.741V19.4931H106.355V7.89575Z" fill="black"/>
<path d="M41.942 0.760289C43.2144 0.753609 44.1655 1.69556 44.1523 2.95149C44.1392 4.16067 43.1947 5.12934 42.001 5.14938C40.7679 5.16943 39.7972 4.18739 39.8037 2.91809C39.8037 1.66884 40.7024 0.766969 41.942 0.760289Z" fill="black"/>
<path d="M104.568 5.14266C103.355 5.15602 102.43 4.24079 102.404 2.99822C102.378 1.68217 103.25 0.766934 104.535 0.760254C105.769 0.760254 106.707 1.65544 106.739 2.87129C106.772 4.10051 105.795 5.1293 104.568 5.14266Z" fill="black"/>
</g>
<path d="M213.88 7.5C213.821 7.5 213.776 7.484 213.744 7.452C213.712 7.41467 213.696 7.36933 213.696 7.316V2.092C213.696 2.03333 213.712 1.988 213.744 1.956C213.776 1.91867 213.821 1.9 213.88 1.9H215.912C216.307 1.9 216.648 1.964 216.936 2.092C217.229 2.22 217.456 2.412 217.616 2.668C217.776 2.91867 217.856 3.23333 217.856 3.612C217.856 3.99067 217.776 4.30533 217.616 4.556C217.456 4.80667 217.229 4.996 216.936 5.124C216.648 5.252 216.307 5.316 215.912 5.316H214.496V7.316C214.496 7.36933 214.477 7.41467 214.44 7.452C214.408 7.484 214.363 7.5 214.304 7.5H213.88ZM214.488 4.644H215.872C216.267 4.644 216.563 4.556 216.76 4.38C216.957 4.204 217.056 3.948 217.056 3.612C217.056 3.28133 216.96 3.02533 216.768 2.844C216.576 2.66267 216.277 2.572 215.872 2.572H214.488V4.644ZM220.374 7.58C219.969 7.58 219.63 7.50267 219.358 7.348C219.086 7.19333 218.878 6.98 218.734 6.708C218.59 6.43067 218.51 6.116 218.494 5.764C218.489 5.67333 218.486 5.55867 218.486 5.42C218.486 5.276 218.489 5.16133 218.494 5.076C218.51 4.71867 218.59 4.404 218.734 4.132C218.883 3.86 219.094 3.64667 219.366 3.492C219.638 3.33733 219.974 3.26 220.374 3.26C220.774 3.26 221.11 3.33733 221.382 3.492C221.654 3.64667 221.862 3.86 222.006 4.132C222.155 4.404 222.238 4.71867 222.254 5.076C222.259 5.16133 222.262 5.276 222.262 5.42C222.262 5.55867 222.259 5.67333 222.254 5.764C222.238 6.116 222.158 6.43067 222.014 6.708C221.87 6.98 221.662 7.19333 221.39 7.348C221.118 7.50267 220.779 7.58 220.374 7.58ZM220.374 6.964C220.705 6.964 220.969 6.86 221.166 6.652C221.363 6.43867 221.47 6.12933 221.486 5.724C221.491 5.644 221.494 5.54267 221.494 5.42C221.494 5.29733 221.491 5.196 221.486 5.116C221.47 4.71067 221.363 4.404 221.166 4.196C220.969 3.98267 220.705 3.876 220.374 3.876C220.043 3.876 219.777 3.98267 219.574 4.196C219.377 4.404 219.273 4.71067 219.262 5.116C219.257 5.196 219.254 5.29733 219.254 5.42C219.254 5.54267 219.257 5.644 219.262 5.724C219.273 6.12933 219.377 6.43867 219.574 6.652C219.777 6.86 220.043 6.964 220.374 6.964ZM224.259 7.5C224.189 7.5 224.136 7.484 224.099 7.452C224.061 7.41467 224.029 7.364 224.003 7.3L222.867 3.588C222.856 3.56133 222.851 3.53467 222.851 3.508C222.851 3.46 222.867 3.42 222.899 3.388C222.936 3.356 222.976 3.34 223.019 3.34H223.371C223.429 3.34 223.475 3.356 223.507 3.388C223.539 3.42 223.56 3.44933 223.571 3.476L224.459 6.492L225.411 3.508C225.421 3.47067 225.443 3.43333 225.475 3.396C225.512 3.35867 225.565 3.34 225.635 3.34H225.907C225.976 3.34 226.029 3.35867 226.067 3.396C226.104 3.43333 226.125 3.47067 226.131 3.508L227.082 6.492L227.971 3.476C227.976 3.44933 227.995 3.42 228.027 3.388C228.059 3.356 228.104 3.34 228.163 3.34H228.515C228.563 3.34 228.603 3.356 228.635 3.388C228.667 3.42 228.683 3.46 228.683 3.508C228.683 3.53467 228.677 3.56133 228.667 3.588L227.531 7.3C227.515 7.364 227.485 7.41467 227.443 7.452C227.405 7.484 227.349 7.5 227.275 7.5H226.963C226.893 7.5 226.834 7.484 226.786 7.452C226.744 7.41467 226.715 7.364 226.699 7.3L225.771 4.436L224.843 7.3C224.821 7.364 224.789 7.41467 224.747 7.452C224.704 7.484 224.645 7.5 224.571 7.5H224.259ZM231.115 7.58C230.566 7.58 230.129 7.412 229.803 7.076C229.478 6.73467 229.299 6.27067 229.267 5.684C229.262 5.61467 229.259 5.52667 229.259 5.42C229.259 5.308 229.262 5.21733 229.267 5.148C229.289 4.76933 229.377 4.43867 229.531 4.156C229.686 3.868 229.897 3.64667 230.163 3.492C230.435 3.33733 230.753 3.26 231.115 3.26C231.521 3.26 231.859 3.34533 232.131 3.516C232.409 3.68667 232.619 3.92933 232.763 4.244C232.907 4.55867 232.979 4.92667 232.979 5.348V5.484C232.979 5.54267 232.961 5.588 232.923 5.62C232.891 5.652 232.849 5.668 232.795 5.668H230.027C230.027 5.67333 230.027 5.684 230.027 5.7C230.027 5.716 230.027 5.72933 230.027 5.74C230.038 5.95867 230.086 6.164 230.171 6.356C230.257 6.54267 230.379 6.69467 230.539 6.812C230.699 6.92933 230.891 6.988 231.115 6.988C231.307 6.988 231.467 6.95867 231.595 6.9C231.723 6.84133 231.827 6.77733 231.907 6.708C231.987 6.63333 232.041 6.57733 232.067 6.54C232.115 6.47067 232.153 6.43067 232.179 6.42C232.206 6.404 232.249 6.396 232.307 6.396H232.691C232.745 6.396 232.787 6.412 232.819 6.444C232.857 6.47067 232.873 6.51067 232.867 6.564C232.862 6.644 232.819 6.74267 232.739 6.86C232.659 6.972 232.545 7.084 232.395 7.196C232.246 7.308 232.065 7.40133 231.851 7.476C231.638 7.54533 231.393 7.58 231.115 7.58ZM230.027 5.116H232.219V5.092C232.219 4.852 232.174 4.63867 232.083 4.452C231.998 4.26533 231.873 4.11867 231.707 4.012C231.542 3.9 231.345 3.844 231.115 3.844C230.886 3.844 230.689 3.9 230.523 4.012C230.363 4.11867 230.241 4.26533 230.155 4.452C230.07 4.63867 230.027 4.852 230.027 5.092V5.116ZM234.12 7.5C234.066 7.5 234.021 7.484 233.984 7.452C233.952 7.41467 233.936 7.36933 233.936 7.316V3.532C233.936 3.47867 233.952 3.43333 233.984 3.396C234.021 3.35867 234.066 3.34 234.12 3.34H234.488C234.541 3.34 234.586 3.35867 234.624 3.396C234.661 3.43333 234.68 3.47867 234.68 3.532V3.884C234.786 3.70267 234.933 3.56667 235.12 3.476C235.306 3.38533 235.53 3.34 235.792 3.34H236.112C236.165 3.34 236.208 3.35867 236.24 3.396C236.272 3.428 236.288 3.47067 236.288 3.524V3.852C236.288 3.90533 236.272 3.948 236.24 3.98C236.208 4.012 236.165 4.028 236.112 4.028H235.632C235.344 4.028 235.117 4.11333 234.952 4.284C234.786 4.44933 234.704 4.676 234.704 4.964V7.316C234.704 7.36933 234.685 7.41467 234.648 7.452C234.61 7.484 234.565 7.5 234.512 7.5H234.12ZM238.553 7.58C238.003 7.58 237.566 7.412 237.241 7.076C236.915 6.73467 236.737 6.27067 236.705 5.684C236.699 5.61467 236.697 5.52667 236.697 5.42C236.697 5.308 236.699 5.21733 236.705 5.148C236.726 4.76933 236.814 4.43867 236.969 4.156C237.123 3.868 237.334 3.64667 237.601 3.492C237.873 3.33733 238.19 3.26 238.553 3.26C238.958 3.26 239.297 3.34533 239.569 3.516C239.846 3.68667 240.057 3.92933 240.201 4.244C240.345 4.55867 240.417 4.92667 240.417 5.348V5.484C240.417 5.54267 240.398 5.588 240.361 5.62C240.329 5.652 240.286 5.668 240.233 5.668H237.465C237.465 5.67333 237.465 5.684 237.465 5.7C237.465 5.716 237.465 5.72933 237.465 5.74C237.475 5.95867 237.523 6.164 237.609 6.356C237.694 6.54267 237.817 6.69467 237.977 6.812C238.137 6.92933 238.329 6.988 238.553 6.988C238.745 6.988 238.905 6.95867 239.033 6.9C239.161 6.84133 239.265 6.77733 239.345 6.708C239.425 6.63333 239.478 6.57733 239.505 6.54C239.553 6.47067 239.59 6.43067 239.617 6.42C239.643 6.404 239.686 6.396 239.745 6.396H240.129C240.182 6.396 240.225 6.412 240.257 6.444C240.294 6.47067 240.31 6.51067 240.305 6.564C240.299 6.644 240.257 6.74267 240.177 6.86C240.097 6.972 239.982 7.084 239.833 7.196C239.683 7.308 239.502 7.40133 239.289 7.476C239.075 7.54533 238.83 7.58 238.553 7.58ZM237.465 5.116H239.657V5.092C239.657 4.852 239.611 4.63867 239.521 4.452C239.435 4.26533 239.31 4.11867 239.145 4.012C238.979 3.9 238.782 3.844 238.553 3.844C238.323 3.844 238.126 3.9 237.961 4.012C237.801 4.11867 237.678 4.26533 237.593 4.452C237.507 4.63867 237.465 4.852 237.465 5.092V5.116ZM242.893 7.58C242.6 7.58 242.347 7.52933 242.133 7.428C241.92 7.32133 241.744 7.18 241.605 7.004C241.472 6.82267 241.371 6.61733 241.301 6.388C241.237 6.15867 241.2 5.916 241.189 5.66C241.184 5.57467 241.181 5.49467 241.181 5.42C241.181 5.34533 241.184 5.26533 241.189 5.18C241.2 4.92933 241.237 4.68933 241.301 4.46C241.371 4.23067 241.472 4.02533 241.605 3.844C241.744 3.66267 241.92 3.52133 242.133 3.42C242.347 3.31333 242.6 3.26 242.893 3.26C243.208 3.26 243.469 3.316 243.677 3.428C243.885 3.54 244.056 3.67867 244.189 3.844V2.004C244.189 1.95067 244.205 1.908 244.237 1.876C244.275 1.83867 244.32 1.82 244.373 1.82H244.757C244.811 1.82 244.853 1.83867 244.885 1.876C244.923 1.908 244.941 1.95067 244.941 2.004V7.316C244.941 7.36933 244.923 7.41467 244.885 7.452C244.853 7.484 244.811 7.5 244.757 7.5H244.397C244.339 7.5 244.293 7.484 244.261 7.452C244.229 7.41467 244.213 7.36933 244.213 7.316V6.98C244.08 7.15067 243.907 7.29467 243.693 7.412C243.48 7.524 243.213 7.58 242.893 7.58ZM243.061 6.932C243.328 6.932 243.541 6.87067 243.701 6.748C243.861 6.62533 243.981 6.47067 244.061 6.284C244.141 6.092 244.184 5.89733 244.189 5.7C244.195 5.61467 244.197 5.51333 244.197 5.396C244.197 5.27333 244.195 5.16933 244.189 5.084C244.184 4.89733 244.139 4.71333 244.053 4.532C243.973 4.35067 243.851 4.20133 243.685 4.084C243.525 3.96667 243.317 3.908 243.061 3.908C242.789 3.908 242.573 3.96933 242.413 4.092C242.253 4.20933 242.139 4.36667 242.069 4.564C242 4.756 241.96 4.964 241.949 5.188C241.944 5.34267 241.944 5.49733 241.949 5.652C241.96 5.876 242 6.08667 242.069 6.284C242.139 6.476 242.253 6.63333 242.413 6.756C242.573 6.87333 242.789 6.932 243.061 6.932ZM250.148 7.58C249.828 7.58 249.561 7.524 249.348 7.412C249.135 7.29467 248.964 7.15067 248.836 6.98V7.316C248.836 7.36933 248.817 7.41467 248.78 7.452C248.748 7.484 248.705 7.5 248.652 7.5H248.284C248.231 7.5 248.185 7.484 248.148 7.452C248.116 7.41467 248.1 7.36933 248.1 7.316V2.004C248.1 1.95067 248.116 1.908 248.148 1.876C248.185 1.83867 248.231 1.82 248.284 1.82H248.668C248.727 1.82 248.772 1.83867 248.804 1.876C248.836 1.908 248.852 1.95067 248.852 2.004V3.844C248.985 3.67867 249.156 3.54 249.364 3.428C249.577 3.316 249.839 3.26 250.148 3.26C250.447 3.26 250.7 3.31333 250.908 3.42C251.121 3.52133 251.295 3.66267 251.428 3.844C251.567 4.02533 251.671 4.23067 251.74 4.46C251.809 4.68933 251.847 4.92933 251.852 5.18C251.857 5.26533 251.86 5.34533 251.86 5.42C251.86 5.49467 251.857 5.57467 251.852 5.66C251.847 5.916 251.809 6.15867 251.74 6.388C251.671 6.61733 251.567 6.82267 251.428 7.004C251.295 7.18 251.121 7.32133 250.908 7.428C250.7 7.52933 250.447 7.58 250.148 7.58ZM249.98 6.932C250.257 6.932 250.473 6.87333 250.628 6.756C250.788 6.63333 250.903 6.476 250.972 6.284C251.041 6.08667 251.081 5.876 251.092 5.652C251.097 5.49733 251.097 5.34267 251.092 5.188C251.081 4.964 251.041 4.756 250.972 4.564C250.903 4.36667 250.788 4.20933 250.628 4.092C250.473 3.96933 250.257 3.908 249.98 3.908C249.729 3.908 249.521 3.96667 249.356 4.084C249.191 4.20133 249.065 4.35067 248.98 4.532C248.9 4.71333 248.857 4.89733 248.852 5.084C248.847 5.16933 248.844 5.27333 248.844 5.396C248.844 5.51333 248.847 5.61467 248.852 5.7C248.863 5.89733 248.905 6.092 248.98 6.284C249.06 6.47067 249.18 6.62533 249.34 6.748C249.505 6.87067 249.719 6.932 249.98 6.932ZM253.422 9.02C253.379 9.02 253.342 9.004 253.31 8.972C253.278 8.94 253.262 8.90267 253.262 8.86C253.262 8.83867 253.264 8.81733 253.27 8.796C253.275 8.77467 253.286 8.748 253.302 8.716L253.918 7.252L252.39 3.644C252.363 3.58 252.35 3.53467 252.35 3.508C252.35 3.46 252.366 3.42 252.398 3.388C252.43 3.356 252.47 3.34 252.518 3.34H252.91C252.963 3.34 253.006 3.35333 253.038 3.38C253.07 3.40667 253.091 3.43867 253.102 3.476L254.318 6.388L255.566 3.476C255.582 3.43867 255.603 3.40667 255.63 3.38C255.662 3.35333 255.707 3.34 255.766 3.34H256.142C256.19 3.34 256.23 3.356 256.262 3.388C256.294 3.42 256.31 3.45733 256.31 3.5C256.31 3.52667 256.296 3.57467 256.27 3.644L253.998 8.884C253.982 8.92133 253.958 8.95333 253.926 8.98C253.899 9.00667 253.856 9.02 253.798 9.02H253.422Z" fill="#111322"/>
<g clip-path="url(#clip2_4944_21751)">
<path d="M225.155 13.4966C225.155 14.6997 224.183 15.675 222.985 15.675C221.786 15.675 220.814 14.6997 220.814 13.4966C220.814 12.2934 221.786 11.3181 222.985 11.3181C224.183 11.3181 225.155 12.2934 225.155 13.4966Z" fill="#7F56D9"/>
<path d="M216.039 21.1211C216.039 21.9633 215.359 22.646 214.519 22.646C213.68 22.646 213 21.9633 213 21.1211C213 20.279 213.68 19.5962 214.519 19.5962C215.359 19.5962 216.039 20.279 216.039 21.1211Z" fill="#1F1F1F"/>
<path d="M230.468 22.157C230.468 22.9992 229.788 23.6819 228.949 23.6819C228.11 23.6819 227.43 22.9992 227.43 22.157C227.43 21.3148 228.11 20.6321 228.949 20.6321C229.788 20.6321 230.468 21.3148 230.468 22.157Z" fill="#1F1F1F"/>
<path d="M224 21.1849C224 22.027 223.32 22.7098 222.481 22.7098C221.642 22.7098 220.961 22.027 220.961 21.1849C220.961 20.3427 221.642 19.6599 222.481 19.6599C223.32 19.6599 224 20.3427 224 21.1849Z" fill="#1F1F1F"/>
<path d="M220.38 17.6359C220.38 18.7187 219.506 19.5965 218.427 19.5965C217.348 19.5965 216.473 18.7187 216.473 17.6359C216.473 16.5531 217.348 15.6753 218.427 15.6753C219.506 15.6753 220.38 16.5531 220.38 17.6359Z" fill="#1F1F1F"/>
<path d="M227.854 18.1249C227.854 19.2078 226.979 20.0855 225.9 20.0855C224.821 20.0855 223.947 19.2078 223.947 18.1249C223.947 17.0421 224.821 16.1643 225.9 16.1643C226.979 16.1643 227.854 17.0421 227.854 18.1249Z" fill="#1F1F1F"/>
<path d="M241.046 11.9641C241.412 11.9641 241.736 12.0397 242.02 12.191C242.31 12.3365 242.536 12.5634 242.699 12.8717C242.867 13.1801 242.951 13.5786 242.951 14.0674V16.7728H241.299V14.3379C241.299 14.0005 241.235 13.7561 241.107 13.6048C240.98 13.4477 240.806 13.3692 240.585 13.3692C240.429 13.3692 240.287 13.407 240.159 13.4826C240.032 13.5583 239.933 13.6746 239.864 13.8317C239.794 13.983 239.759 14.1808 239.759 14.4252V16.7728H238.107V14.3379C238.107 14.0005 238.043 13.7561 237.916 13.6048C237.794 13.4477 237.62 13.3692 237.394 13.3692C237.232 13.3692 237.087 13.407 236.959 13.4826C236.838 13.5583 236.739 13.6746 236.664 13.8317C236.594 13.983 236.559 14.1808 236.559 14.4252V16.7728H234.907V12.0426H236.481V13.3605L236.168 12.9852C236.342 12.6477 236.58 12.3946 236.881 12.2259C237.183 12.0514 237.519 11.9641 237.89 11.9641C238.313 11.9641 238.684 12.0746 239.003 12.2957C239.328 12.511 239.545 12.8485 239.655 13.3081L239.116 13.1946C239.284 12.8106 239.536 12.511 239.872 12.2957C240.214 12.0746 240.606 11.9641 241.046 11.9641ZM243.733 16.7728V12.0426H245.385V16.7728H243.733ZM244.559 11.519C244.257 11.519 244.014 11.4346 243.828 11.2659C243.643 11.0972 243.55 10.8877 243.55 10.6376C243.55 10.3874 243.643 10.1779 243.828 10.0092C244.014 9.84047 244.257 9.7561 244.559 9.7561C244.86 9.7561 245.104 9.83756 245.289 10.0005C245.475 10.1576 245.567 10.3612 245.567 10.6114C245.567 10.8732 245.475 11.0914 245.289 11.2659C245.109 11.4346 244.866 11.519 244.559 11.519ZM249.267 11.9641C249.633 11.9641 249.963 12.0397 250.259 12.191C250.554 12.3365 250.786 12.5634 250.954 12.8717C251.128 13.1801 251.215 13.5786 251.215 14.0674V16.7728H249.563V14.3379C249.563 14.0005 249.493 13.7561 249.354 13.6048C249.221 13.4477 249.032 13.3692 248.789 13.3692C248.615 13.3692 248.456 13.4099 248.311 13.4914C248.166 13.567 248.053 13.6863 247.972 13.8492C247.89 14.0121 247.85 14.2245 247.85 14.4863V16.7728H246.198V12.0426H247.772V13.3866L247.467 12.9939C247.647 12.6506 247.893 12.3946 248.206 12.2259C248.519 12.0514 248.873 11.9641 249.267 11.9641Z" fill="#7F56D9"/>
<path d="M237.012 24.8513C236.409 24.8513 235.939 24.7029 235.603 24.4062C235.267 24.1037 235.099 23.6498 235.099 23.0448V18.9866H236.751V23.0273C236.751 23.196 236.797 23.3298 236.89 23.4288C236.983 23.5218 237.101 23.5684 237.246 23.5684C237.444 23.5684 237.612 23.5189 237.751 23.42L238.159 24.5808C238.02 24.6738 237.849 24.7408 237.646 24.7815C237.444 24.828 237.232 24.8513 237.012 24.8513ZM234.412 21.4564V20.2171H237.829V21.4564H234.412ZM240.765 24.8513C240.249 24.8513 239.791 24.7466 239.391 24.5371C238.991 24.3277 238.675 24.0397 238.443 23.6731C238.217 23.3008 238.104 22.876 238.104 22.3989C238.104 21.9218 238.217 21.5 238.443 21.1335C238.675 20.7669 238.991 20.4818 239.391 20.2782C239.791 20.0688 240.249 19.964 240.765 19.964C241.281 19.964 241.739 20.0688 242.139 20.2782C242.545 20.4818 242.861 20.7669 243.087 21.1335C243.313 21.5 243.426 21.9218 243.426 22.3989C243.426 22.876 243.313 23.3008 243.087 23.6731C242.861 24.0397 242.545 24.3277 242.139 24.5371C241.739 24.7466 241.281 24.8513 240.765 24.8513ZM240.765 23.5335C240.956 23.5335 241.124 23.4898 241.269 23.4026C241.42 23.3153 241.539 23.1873 241.626 23.0186C241.713 22.844 241.756 22.6375 241.756 22.3989C241.756 22.1604 241.713 21.9597 241.626 21.7968C241.539 21.628 241.42 21.5 241.269 21.4128C241.124 21.3255 240.956 21.2818 240.765 21.2818C240.58 21.2818 240.411 21.3255 240.261 21.4128C240.116 21.5 239.997 21.628 239.904 21.7968C239.817 21.9597 239.774 22.1604 239.774 22.3989C239.774 22.6375 239.817 22.844 239.904 23.0186C239.997 23.1873 240.116 23.3153 240.261 23.4026C240.411 23.4898 240.58 23.5335 240.765 23.5335ZM250.07 19.964C250.435 19.964 250.759 20.0397 251.044 20.1909C251.333 20.3364 251.559 20.5633 251.722 20.8717C251.89 21.18 251.974 21.5786 251.974 22.0673V24.7728H250.322V22.3378C250.322 22.0004 250.258 21.756 250.13 21.6048C250.003 21.4477 249.829 21.3691 249.609 21.3691C249.452 21.3691 249.31 21.4069 249.183 21.4826C249.055 21.5582 248.956 21.6746 248.887 21.8317C248.817 21.9829 248.783 22.1808 248.783 22.4251V24.7728H247.13V22.3378C247.13 22.0004 247.067 21.756 246.939 21.6048C246.817 21.4477 246.643 21.3691 246.417 21.3691C246.255 21.3691 246.11 21.4069 245.983 21.4826C245.861 21.5582 245.762 21.6746 245.687 21.8317C245.617 21.9829 245.583 22.1808 245.583 22.4251V24.7728H243.93V20.0426H245.504V21.3604L245.191 20.9851C245.365 20.6477 245.603 20.3946 245.904 20.2258C246.206 20.0513 246.542 19.964 246.913 19.964C247.336 19.964 247.707 20.0746 248.026 20.2957C248.351 20.5109 248.568 20.8484 248.678 21.308L248.139 21.1946C248.307 20.8106 248.559 20.5109 248.896 20.2957C249.238 20.0746 249.629 19.964 250.07 19.964ZM254.86 24.8513C254.257 24.8513 253.788 24.7029 253.451 24.4062C253.115 24.1037 252.947 23.6498 252.947 23.0448V18.9866H254.599V23.0273C254.599 23.196 254.646 23.3298 254.738 23.4288C254.831 23.5218 254.95 23.5684 255.095 23.5684C255.292 23.5684 255.46 23.5189 255.599 23.42L256.008 24.5808C255.869 24.6738 255.698 24.7408 255.495 24.7815C255.292 24.828 255.08 24.8513 254.86 24.8513ZM252.26 21.4564V20.2171H255.678V21.4564H252.26Z" fill="black"/>
</g>
<defs>
<clipPath id="clip0_4944_21751">
<rect width="25" height="25" fill="white" transform="translate(0 0.5)"/>
</clipPath>
<clipPath id="clip1_4944_21751">
<rect width="162" height="25" fill="white" transform="translate(28 0.5)"/>
</clipPath>
<clipPath id="clip2_4944_21751">
<rect width="50" height="16" fill="white" transform="translate(213 9.5)"/>
</clipPath>
</defs>
</svg>
